<?xml version="1.0" encoding="utf-8"?>
<!-- Generator: Adobe Illustrator 24.0.1, SVG Export Plug-In . SVG Version: 6.00 Build 0)  -->
<svg version="1.1" id="Calque_1" xmlns="http://www.w3.org/2000/svg" xmlns:xlink="http://www.w3.org/1999/xlink" x="0px" y="0px"
	 viewBox="0 0 444.3 113.4" style="enable-background:new 0 0 444.3 113.4;" xml:space="preserve">
<style type="text/css">
	.st0{fill:#D21E2B;}
</style>
<g>
	<path class="st0" d="M126.9,75.9c6.3,9,0,23.4-1.3,25.4c0.5-2.9-1-9.6-9.1-11.4s-13.4,13-6.4,23.6h-56c10.9-6,27.3-9.4,28.6-20.9
		c0.7-6.9-8.8-12.7-16.3-7.9c2.7-7.8,5.4-14.9,35.1-8c-26.9-19.4-30.2-28.1,5.1-39c-12.1-4.3-32.4-7.8-39.3-1.2
		c0.2-3.8,1.8-11.9,7.6-17c-5.6-1.2-14.1-2.7-20.9,2.8C53.5,1.9,75.9,2.7,91.1,0c-15.3,10.1-12.3,19.7,0.5,21.1
		c22.5,2.3,40.3,4.1,42.5,28.7c-19-13.4-31.5-2.3-26,7.9C112.4,65.5,120.6,66.9,126.9,75.9z"/>
	<path class="st0" d="M85.9,40c-10.3-1.4-13.7,1.8-18.6,4.2c-7.5,3.7-10.8-10-3.3-19.6c-10.4,2.1-14.1,9.1-16,12.9
		c-1.9-9.8-3.8-14.8,5.1-31.1C41.7,14.6,38.4,21.7,34,36.2c-3.1-4-4.8-13.2,0.2-21.7C16.4,26.7,29,41.2,17.1,63.1
		c-3.2,6-13.1,9.4-16,0c-3.6,13.3,2,25.6,12.7,30.3c-0.2-4.1,0.5-8,3.5-11.4c0.5,2.8,0.9,5.3,3.2,7.2c-0.1-3.4,1.8-7.1,3.9-9.9
		c0.3,2.7,1,4.9,3.2,5.7c6.6-19.3,17.4-17.2,18.2-15.9s0.9,9.5-3.2,13.7c-6,6.1-14.7,7.4-17.5,8.2c0.6,2.6,2.8,3.5,5.2,4.4
		c-3.4,2.8-7.2,2.5-11.1,2.2c3.2,7.3,16.4,13.5,23,11.2c-1.2-2-2.3-4.1-3.2-6.2c-1.9-4.7,0.2-8.1,4.9-9c3.9-0.7,9.4,1.3,11.8,1.9
		c-4.1-10,6.4-30.9,27.7-27C62.8,52,79.9,42.7,85.9,40z M32.7,56.2c0-4.5,2.2-11.3,3.1-12.4s3.8-0.7,8.4,1.6
		C38.1,48.6,36,51.3,32.7,56.2z"/>
	<polygon class="st0" points="189.4,46.9 180.3,46.9 173.9,54.3 173.9,36.7 166.6,36.7 166.6,72 173.9,72 173.9,63.7 175.4,62.1 
		181.9,72 190.6,72 180.6,56.8 	"/>
	<path class="st0" d="M227.9,45.8c-2.7,0-4.8,2.2-4.9,4.8c0,0,0,0,0,0l0,0c0,2.7,2.2,4.8,4.9,4.8c2.7,0,4.8-2.2,4.8-4.9
		c0-1.3-0.5-2.5-1.4-3.4C230.4,46.3,229.2,45.8,227.9,45.8z"/>
	<path class="st0" d="M227.9,63.4c-2.7,0-4.8,2.2-4.9,4.8l0,0c0,2.7,2.2,4.9,4.9,4.9c2.7,0,4.9-2.2,4.9-4.9
		C232.8,65.6,230.6,63.4,227.9,63.4L227.9,63.4z"/>
	<path class="st0" d="M253.3,56.7c-1.3-0.5-2.6-1.1-3.8-1.8c-0.6-0.4-0.6-0.8-0.6-0.9c0-0.5,0-1.3,1.9-1.3c1.6-0.1,3.1,0.4,4.3,1.3
		l1,0.9l2.3-6.3l-0.7-0.4c-2.2-1.2-4.7-1.7-7.3-1.7c-2.3-0.1-4.5,0.6-6.4,1.9c-1.8,1.2-2.8,3.3-2.7,5.5c0,3.4,2.2,6,6.6,7.9
		c1.2,0.4,2.4,1,3.5,1.8c0.4,0.4,0.7,0.9,0.6,1.5c0,0.5,0,1.3-2.2,1.3c-1.8,0-3.5-0.6-4.9-1.7l-0.9-0.8l-2.8,6.2l0.8,0.4
		c1.2,0.7,2.5,1.2,3.8,1.6c1.3,0.3,2.7,0.4,4,0.4c2.5,0.1,5-0.6,7.1-2c1.8-1.4,2.9-3.6,2.8-5.8c0-1.7-0.5-3.4-1.5-4.7
		C256.8,58.4,255.1,57.3,253.3,56.7z"/>
	<path class="st0" d="M277.5,46.5c-3.3,0-6.5,1.3-8.8,3.7c-2.5,2.6-3.8,6-3.7,9.6c0,4,1.1,7.1,3.4,9.4c2.4,2.3,5.7,3.6,9.1,3.4
		c8.6,0,11.4-4.9,11.4-4.9l-4.7-4l-0.9,0.9c-1.4,1.2-3.2,1.8-5,1.7c-1.5,0.1-3-0.3-4.1-1.3c-0.8-0.7-1.3-1.7-1.5-2.7h16
		C290.8,48.5,281.1,46.5,277.5,46.5z M273.1,56.1c0.5-2,2.4-3.4,4.5-3.2c2.5,0,4,1,4.5,3.2H273.1z"/>
	<path class="st0" d="M360.4,40c-1.4,0-2.5,1.1-2.5,2.5c0,0,0,0,0,0l0,0c0,1.4,1.1,2.5,2.5,2.6c1.4,0,2.5-1.1,2.6-2.5l0,0
		C363,41.1,361.8,40,360.4,40C360.4,40,360.4,40,360.4,40L360.4,40L360.4,40z"/>
	<path class="st0" d="M411,65.1c-0.4,1.1-1.2,2.1-2.2,2.7c-1.1,0.8-2.4,1.2-3.7,1.2c-3.1,0-4.7-1.8-4.7-5.4V48.8h-4.1v15.3
		c-0.2,2.3,0.6,4.5,2,6.2c1.6,1.5,3.7,2.3,5.9,2.2c1.4,0,2.8-0.4,4.1-1.1c1.2-0.5,2.1-1.4,2.8-2.5v3.2h4.2V48.8H411L411,65.1z"/>
	<polygon class="st0" points="435,60.1 443.5,48.8 438.9,48.8 433.1,56.8 427.8,48.8 423.2,48.8 431,60.1 422.5,72 427.3,72 
		433,63.6 439.3,72 444.3,72 	"/>
	<rect x="358.1" y="48.8" class="st0" width="4.1" height="23.3"/>
	<path class="st0" d="M316.2,49.2c-4.5-4.4-9.8-2.3-12.3-0.7v-1.6h-7.3V72h7.3V55.6c0.5-0.5,1-0.9,1.6-1.2c0.7-0.4,1.4-0.5,2.1-0.6
		c1.1-0.1,2.2,0.3,3,1.1c0.7,1.1,1,2.4,0.9,3.7V72h7.3V57.8C318.9,54.6,318,51,316.2,49.2z"/>
	<rect x="344.5" y="39.3" class="st0" width="4.1" height="32.8"/>
	<path class="st0" d="M374.6,50.6v-1.8h-4.1v23.3h4.1V56.9c0-1.7,0.9-4.8,5.3-4.8s4.9,3.9,4.9,6.4V72h4.1V57.6
		C388.9,45.7,374.8,47.9,374.6,50.6z"/>
	<path class="st0" d="M167.8,87.2v1.9h2.9v1.2h-2.9v3.7h-1.4V86h5.4v1.3L167.8,87.2z"/>
	<path class="st0" d="M174.6,89.9c0-1.1,0.3-2.1,1-2.9c0.6-0.8,1.6-1.2,2.6-1.2c1-0.1,2,0.3,2.7,1.1c0.7,0.9,1,2,0.9,3
		c0.1,1.1-0.3,2.2-1,3.1c-0.7,0.8-1.7,1.2-2.7,1.1c-1,0.1-1.9-0.4-2.5-1.1C174.9,92.1,174.6,91,174.6,89.9z M176.1,89.9
		c0,0.8,0.1,1.5,0.5,2.2c0.3,0.5,0.8,0.8,1.4,0.8c0.6,0,1.3-0.3,1.6-0.8c0.4-0.7,0.6-1.4,0.6-2.2c0-1.9-0.7-2.9-2.1-2.9
		c-0.6,0-1.2,0.3-1.5,0.8C176.3,88.5,176.1,89.2,176.1,89.9L176.1,89.9z"/>
	<path class="st0" d="M189.6,94.1l-2.2-3.3h-0.9v3.4h-1.5V86h0.9c0.5,0,1,0,1.3,0c2.1,0,3.1,0.8,3.1,2.4c0,0.5-0.1,0.9-0.4,1.3
		c-0.3,0.4-0.6,0.7-1.1,0.8l2.4,3.7L189.6,94.1z M186.5,87.2v2.3h0.6c0.5,0,0.9-0.1,1.3-0.2c0.3-0.2,0.5-0.6,0.4-1
		c0-0.3-0.1-0.7-0.4-0.9c-0.5-0.2-0.9-0.3-1.4-0.2C186.9,87.1,186.7,87.1,186.5,87.2L186.5,87.2z"/>
	<path class="st0" d="M200.9,91.1v3h-1.4V86c1,0,1.5-0.1,1.7-0.1c1-0.1,1.9,0.1,2.8,0.6c0.6,0.4,1,1.1,0.9,1.8
		c0,1.9-1.1,2.8-3.3,2.8C201.4,91.1,201.2,91.1,200.9,91.1z M200.9,87.2v2.6h0.6c0.5,0,1-0.1,1.4-0.3c0.3-0.3,0.5-0.7,0.4-1.1
		c0-0.9-0.7-1.3-2-1.3L200.9,87.2z"/>
	<path class="st0" d="M212.8,94.1l-2.2-3.3h-0.9v3.4h-1.5V86h0.9c0.5,0,1,0,1.3,0c2.1,0,3.1,0.8,3.1,2.4c0,1-0.6,1.8-1.5,2.2
		l2.4,3.7L212.8,94.1z M209.7,87.2v2.3h0.6c0.5,0,0.9-0.1,1.3-0.2c0.3-0.2,0.5-0.6,0.4-1c0-0.3-0.2-0.7-0.4-0.9
		c-0.4-0.2-0.9-0.3-1.4-0.2C210.1,87.1,209.9,87.1,209.7,87.2z"/>
	<path class="st0" d="M216.8,89.9c0-1.1,0.3-2.1,1-2.9c0.6-0.8,1.5-1.2,2.5-1.2c1-0.1,2,0.3,2.7,1.1c0.7,0.9,1,2,0.9,3
		c0.1,1.1-0.3,2.2-1,3.1c-0.7,0.8-1.7,1.2-2.8,1.1c-1,0-1.9-0.4-2.5-1.1C217.1,92.1,216.8,91,216.8,89.9z M218.3,89.9
		c0,0.8,0.1,1.5,0.5,2.2c0.3,0.5,0.8,0.8,1.4,0.8c0.6,0,1.3-0.2,1.7-0.8c0.4-0.7,0.6-1.4,0.6-2.2c0-1.9-0.7-2.9-2.1-2.9
		c-0.6,0-1.2,0.3-1.5,0.8C218.5,88.5,218.3,89.2,218.3,89.9z"/>
	<path class="st0" d="M228.7,87.2v1.9h2.9v1.2h-2.9v3.7h-1.4V86h5.4v1.3L228.7,87.2z"/>
	<path class="st0" d="M237.4,87.2v1.9h2.7v1.2h-2.7v2.4h3.7V94h-5.1v-8.1h5.2v1.3L237.4,87.2z"/>
	<path class="st0" d="M244.1,93.6l0.5-1.3c0.5,0.4,1.1,0.6,1.7,0.6c0.9,0,1.3-0.3,1.3-0.9c0-0.3-0.1-0.6-0.3-0.8
		c-0.4-0.4-0.8-0.6-1.2-0.8c-0.5-0.2-0.9-0.5-1.3-0.8c-0.2-0.2-0.4-0.4-0.5-0.7c-0.1-0.3-0.2-0.6-0.2-0.9c0-0.6,0.2-1.2,0.7-1.6
		c0.5-0.4,1.1-0.7,1.8-0.6c0.7-0.1,1.5,0.1,2.1,0.5l-0.4,1.2c-0.5-0.3-1-0.5-1.6-0.5c-0.3,0-0.6,0.1-0.8,0.3
		c-0.2,0.2-0.3,0.4-0.3,0.7c0,0.5,0.5,1,1.5,1.5c0.4,0.2,0.8,0.4,1.2,0.7c0.2,0.2,0.4,0.5,0.5,0.8c0.1,0.3,0.2,0.7,0.2,1
		c0,0.6-0.3,1.2-0.8,1.6c-0.6,0.5-1.3,0.7-2.1,0.6C245.4,94.2,244.7,94,244.1,93.6z"/>
	<path class="st0" d="M251.9,93.6l0.5-1.3c0.5,0.4,1.1,0.6,1.7,0.6c0.8,0,1.3-0.3,1.3-0.9c0-0.3-0.1-0.6-0.3-0.8
		c-0.4-0.4-0.8-0.6-1.2-0.8c-0.4-0.2-0.9-0.5-1.3-0.8c-0.2-0.2-0.4-0.4-0.5-0.7c-0.1-0.3-0.2-0.6-0.2-0.9c0-0.6,0.2-1.2,0.7-1.6
		c0.5-0.4,1.1-0.7,1.8-0.6c0.7-0.1,1.5,0.1,2.1,0.5l-0.4,1.2c-0.5-0.4-1-0.5-1.6-0.5c-0.3,0-0.6,0.1-0.8,0.3
		c-0.2,0.2-0.3,0.4-0.3,0.7c0,0.5,0.5,1,1.5,1.5c0.4,0.2,0.8,0.4,1.2,0.7c0.2,0.2,0.4,0.5,0.5,0.8c0.1,0.3,0.2,0.7,0.2,1
		c0,0.6-0.3,1.2-0.8,1.6c-0.6,0.5-1.3,0.7-2.1,0.6C253.3,94.2,252.5,94,251.9,93.6z"/>
	<path class="st0" d="M260.1,94.1V86h1.4v8.1H260.1z"/>
	<path class="st0" d="M265,89.9c0-1.1,0.3-2.1,1-2.9c0.6-0.8,1.5-1.2,2.5-1.2c1-0.1,2,0.3,2.7,1.1c0.7,0.9,1,2,0.9,3
		c0.1,1.1-0.3,2.2-1,3.1c-0.7,0.8-1.7,1.2-2.8,1.1c-1,0.1-1.9-0.4-2.5-1.1C265.2,92.1,264.9,91,265,89.9z M266.5,89.9
		c0,0.8,0.1,1.5,0.5,2.2c0.3,0.5,0.8,0.8,1.4,0.8c0.6,0,1.3-0.3,1.6-0.8c0.4-0.7,0.6-1.4,0.6-2.2c0-1.9-0.7-2.9-2.1-2.9
		c-0.6,0-1.2,0.3-1.5,0.8C266.6,88.5,266.4,89.2,266.5,89.9L266.5,89.9z"/>
	<path class="st0" d="M280.7,94.2l-3.9-5.1v5h-1.4v-8.1h0.7l3.8,4.9v-4.9h1.4v8.2H280.7z"/>
	<path class="st0" d="M289.8,94.1l-0.6-1.7h-2.8l-0.6,1.7h-1.6l3.2-8.2h0.7l3.3,8.2H289.8z M287.8,88.3l-1,3h2L287.8,88.3z"/>
	<path class="st0" d="M294.3,94.1V86h1.4v6.9h3.7v1.3L294.3,94.1z"/>
	<path class="st0" d="M307.7,94.1V86h1.5v8.1H307.7z"/>
	<path class="st0" d="M316.1,87.2v6.9h-1.4v-6.9h-2.6v-1.3h6.7v1.3L316.1,87.2z"/>
	<path class="st0" d="M211,49.2c-1.8-1.8-4.7-2.7-8.4-2.7c-2.4-0.1-4.9,0.4-7.1,1.4l-0.7,0.4l1.7,6.1l1-0.5c1.5-0.7,3.1-1,4.7-0.9
		c2.8,0,3.8,0.9,4.1,2c-0.4-0.1-0.8-0.1-1.2-0.1c-3.9,0-7,0.8-9.2,2.5c-2.2,1.7-3.5,4.3-3.4,7.1c-0.1,2.3,0.8,4.5,2.5,6
		c1.8,1.5,4.2,2.2,6.5,2.1c1.4,0,2.9-0.3,4.2-0.8c0.7-0.3,1.4-0.7,2-1.2v2h7.3V58.9C215.1,55.3,213.6,51.7,211,49.2z M207.7,64.4
		c-4.7,3.7-7.6,1.2-7.6-1c0-2.4,3-3.9,7.6-1.9V64.4z"/>
</g>
</svg>
