<?xml version="1.0" encoding="utf-8"?>
<!-- Generator: Adobe Illustrator 24.0.1, SVG Export Plug-In . SVG Version: 6.00 Build 0)  -->
<svg version="1.0" id="Calque_1" xmlns="http://www.w3.org/2000/svg" xmlns:xlink="http://www.w3.org/1999/xlink" x="0px" y="0px"
	 viewBox="0 0 308.8 63.9" style="enable-background:new 0 0 308.8 63.9;" xml:space="preserve">
<style type="text/css">
	.st0{fill:#D21E2B;}
</style>
<g>
	<g>
		<polygon class="st0" points="25.6,11.4 15.5,11.4 8.4,19.5 8.4,0 0.3,0 0.3,39.3 8.4,39.3 8.4,30 10.1,28.2 17.3,39.3 27,39.3 
			15.8,22.3 		"/>
		<path class="st0" d="M68.4,10.2c-1.5,0-2.8,0.5-3.8,1.6c-1,1-1.6,2.3-1.6,3.8c0,1.5,0.5,2.8,1.6,3.8c1,1.1,2.3,1.6,3.8,1.6
			s2.8-0.5,3.8-1.6c1-1.1,1.6-2.3,1.6-3.8c0-1.5-0.5-2.8-1.6-3.8C71.1,10.7,69.9,10.2,68.4,10.2z"/>
		<path class="st0" d="M68.4,29.7c-1.5,0-2.8,0.5-3.8,1.6c-1,1-1.6,2.3-1.6,3.8c0,1.5,0.5,2.8,1.6,3.8c1,1.1,2.3,1.6,3.8,1.6
			c1.5,0,2.8-0.5,3.8-1.6c1-1.1,1.6-2.3,1.6-3.8c0-1.5-0.5-2.8-1.6-3.8C71.1,30.2,69.9,29.7,68.4,29.7z"/>
		<path class="st0" d="M96.6,22.2c-2.7-1.1-3.8-1.7-4.2-2c-0.6-0.5-0.6-0.8-0.6-1c0-0.5,0-1.5,2.1-1.5c2.1,0,3.7,0.5,4.8,1.4l1.1,1
			l2.6-7l-0.8-0.4c-2.5-1.3-5.2-1.9-8.1-1.9c-2.9,0-5.3,0.7-7.2,2.1c-2,1.4-3,3.5-3,6.1c0,3.8,2.5,6.7,7.3,8.7c2.4,1,3.4,1.7,3.8,2
			c0.5,0.4,0.7,0.9,0.7,1.6c0,0.5,0,1.5-2.5,1.5c-2,0-3.8-0.6-5.5-1.9l-1.1-0.8L83.2,37l0.9,0.5c1.7,0.9,3.1,1.5,4.2,1.8
			c1.1,0.3,2.6,0.5,4.4,0.5c3.3,0,5.9-0.8,7.9-2.3c2-1.6,3.1-3.8,3.1-6.5c0-2-0.6-3.8-1.7-5.3C100.9,24.3,99.1,23.1,96.6,22.2z"/>
		<path class="st0" d="M123.6,10.9c-3.8,0-7.1,1.4-9.8,4.1c-2.7,2.7-4.1,6.3-4.1,10.6c0,4.4,1.3,7.9,3.7,10.4
			c2.5,2.5,5.9,3.8,10.1,3.8c9.6,0,12.7-5.5,12.7-5.5l-5.2-4.5l-1,1c-1.2,1.2-3.1,1.8-5.5,1.8c-2,0-3.5-0.5-4.6-1.5
			c-0.9-0.8-1.4-1.7-1.6-3c0,0,16.1,0,17.8,0C138.3,13.1,127.6,10.9,123.6,10.9z M118.6,21.6c0.9-2.4,2.5-3.6,5-3.6
			c2.8,0,4.4,1.1,5,3.6H118.6z"/>
		<path class="st0" d="M215.6,3.7c-0.8,0-1.5,0.3-2,0.8c-0.5,0.5-0.8,1.2-0.8,2c0,0.8,0.3,1.5,0.8,2c0.6,0.6,1.2,0.8,2,0.8
			c0.8,0,1.5-0.3,2-0.8c0.6-0.6,0.8-1.2,0.8-2c0-0.8-0.3-1.4-0.8-2C217.1,3.9,216.4,3.7,215.6,3.7z"/>
		<path class="st0" d="M271.8,31.6c-0.4,1.1-1.2,2.1-2.5,3c-1.3,0.9-2.6,1.3-4.2,1.3c-3.5,0-5.2-2-5.2-6V13.4h-4.6v17
			c0,3,0.8,5.3,2.3,6.9c1.5,1.6,3.7,2.4,6.5,2.4c1.5,0,3-0.4,4.5-1.3c1.6-0.8,2.6-1.8,3.1-2.8v3.6h4.6V13.4h-4.6V31.6z"/>
		<polygon class="st0" points="298.5,26.1 307.9,13.4 302.8,13.4 296.4,22.3 290.6,13.4 285.4,13.4 294,26.1 284.6,39.3 290,39.3 
			296.3,29.9 303.3,39.3 308.8,39.3 		"/>
		<rect x="213.1" y="13.4" class="st0" width="4.6" height="25.8"/>
		<path class="st0" d="M166.5,14c-5-4.9-10.8-2.5-13.7-0.8v-1.8h-8.1v27.9h8.1V21c0.4-0.5,1-0.9,1.8-1.3c0.9-0.4,1.7-0.6,2.4-0.6
			c1.6,0,2.7,0.4,3.3,1.1c0.7,0.8,1,2.2,1,4.2v14.9h8.1V23.4C169.5,19.9,168.5,15.9,166.5,14z"/>
		<rect x="198" y="2.8" class="st0" width="4.6" height="36.4"/>
		<path class="st0" d="M231.4,15.4l0-2h-0.1h-4.5v25.8h4.6h0c0,0,0-14.9,0-16.8s1-5.3,5.9-5.3s5.4,4.4,5.4,7.1v15h4.6v-16
			C247.3,10,231.7,12.5,231.4,15.4z"/>
	</g>
	<g>
		<path class="st0" d="M1.6,56.1v2.1h3.2v1.4H1.6v4.1H0v-9h5.9v1.4H1.6z"/>
		<path class="st0" d="M9.2,59.1c0-1.3,0.4-2.4,1.1-3.3c0.7-0.9,1.6-1.3,2.8-1.3c1.3,0,2.3,0.4,3,1.2s1,1.9,1,3.4
			c0,1.5-0.4,2.6-1.1,3.5c-0.7,0.9-1.7,1.3-3.1,1.3c-1.2,0-2.1-0.4-2.8-1.3C9.5,61.8,9.2,60.6,9.2,59.1z M10.9,59.1
			c0,1.1,0.2,1.9,0.5,2.5c0.4,0.6,0.9,0.9,1.6,0.9c0.8,0,1.4-0.3,1.8-0.9c0.4-0.6,0.6-1.4,0.6-2.5c0-2.1-0.8-3.2-2.3-3.2
			c-0.7,0-1.3,0.3-1.6,0.9C11.1,57.4,10.9,58.2,10.9,59.1z"/>
		<path class="st0" d="M25.9,63.7L23.5,60c-0.2,0-0.6,0-1,0v3.8h-1.7v-9c0.1,0,0.4,0,1,0c0.6,0,1.1,0,1.5,0c2.3,0,3.4,0.9,3.4,2.7
			c0,0.5-0.2,1-0.5,1.5c-0.3,0.4-0.7,0.8-1.2,0.9l2.7,4.1H25.9z M22.5,56.1v2.5c0.3,0,0.5,0,0.7,0c0.7,0,1.2-0.1,1.5-0.3
			c0.3-0.2,0.5-0.6,0.5-1.1c0-0.4-0.2-0.8-0.5-0.9c-0.3-0.2-0.9-0.3-1.6-0.3C22.8,56.1,22.6,56.1,22.5,56.1z"/>
		<path class="st0" d="M38.5,60.4v3.3h-1.6v-9c1.1,0,1.7-0.1,1.9-0.1c1.4,0,2.5,0.2,3.1,0.7c0.7,0.4,1,1.1,1,2.1
			c0,2.1-1.2,3.1-3.7,3.1C39,60.5,38.8,60.4,38.5,60.4z M38.5,56.1V59c0.3,0,0.5,0,0.6,0c0.7,0,1.3-0.1,1.6-0.4
			c0.3-0.2,0.5-0.6,0.5-1.2c0-0.9-0.8-1.4-2.3-1.4C38.8,56.1,38.6,56.1,38.5,56.1z"/>
		<path class="st0" d="M51.6,63.7L49.2,60c-0.2,0-0.6,0-1,0v3.8h-1.7v-9c0.1,0,0.4,0,1,0c0.6,0,1.1,0,1.5,0c2.3,0,3.4,0.9,3.4,2.7
			c0,0.5-0.2,1-0.5,1.5c-0.3,0.4-0.7,0.8-1.2,0.9l2.7,4.1H51.6z M48.2,56.1v2.5c0.3,0,0.5,0,0.7,0c0.7,0,1.2-0.1,1.5-0.3
			c0.3-0.2,0.5-0.6,0.5-1.1c0-0.4-0.2-0.8-0.5-0.9c-0.3-0.2-0.9-0.3-1.6-0.3C48.6,56.1,48.4,56.1,48.2,56.1z"/>
		<path class="st0" d="M56.1,59.1c0-1.3,0.4-2.4,1.1-3.3c0.7-0.9,1.6-1.3,2.8-1.3c1.3,0,2.3,0.4,3,1.2s1,1.9,1,3.4
			c0,1.5-0.4,2.6-1.1,3.5c-0.7,0.9-1.7,1.3-3.1,1.3c-1.2,0-2.1-0.4-2.8-1.3C56.4,61.8,56.1,60.6,56.1,59.1z M57.8,59.1
			c0,1.1,0.2,1.9,0.5,2.5c0.4,0.6,0.9,0.9,1.6,0.9c0.8,0,1.4-0.3,1.8-0.9c0.4-0.6,0.6-1.4,0.6-2.5c0-2.1-0.8-3.2-2.3-3.2
			c-0.7,0-1.3,0.3-1.6,0.9C58,57.4,57.8,58.2,57.8,59.1z"/>
		<path class="st0" d="M69.3,56.1v2.1h3.2v1.4h-3.2v4.1h-1.6v-9h5.9v1.4H69.3z"/>
		<path class="st0" d="M78.9,56.1v2.1h3v1.4h-3v2.7H83v1.4h-5.7v-9h5.8v1.4H78.9z"/>
		<path class="st0" d="M86.3,63.2l0.6-1.4c0.6,0.4,1.3,0.7,1.9,0.7c0.9,0,1.4-0.3,1.4-1c0-0.3-0.1-0.6-0.3-0.9
			c-0.2-0.3-0.7-0.6-1.4-0.9s-1.2-0.6-1.4-0.9c-0.2-0.2-0.4-0.5-0.6-0.8c-0.1-0.3-0.2-0.6-0.2-1c0-0.7,0.3-1.3,0.8-1.7
			c0.5-0.5,1.2-0.7,2-0.7c1,0,1.8,0.2,2.3,0.6l-0.5,1.4c-0.6-0.4-1.2-0.6-1.8-0.6c-0.4,0-0.7,0.1-0.9,0.3C88.1,56.4,88,56.7,88,57
			c0,0.5,0.6,1.1,1.7,1.6c0.6,0.3,1,0.6,1.3,0.8c0.3,0.2,0.5,0.5,0.6,0.9c0.1,0.3,0.2,0.7,0.2,1.1c0,0.7-0.3,1.3-0.9,1.8
			c-0.6,0.5-1.4,0.7-2.3,0.7C87.8,63.9,87,63.7,86.3,63.2z"/>
		<path class="st0" d="M95.1,63.2l0.6-1.4c0.6,0.4,1.3,0.7,1.9,0.7c0.9,0,1.4-0.3,1.4-1c0-0.3-0.1-0.6-0.3-0.9
			c-0.2-0.3-0.7-0.6-1.4-0.9c-0.7-0.3-1.2-0.6-1.4-0.9c-0.2-0.2-0.4-0.5-0.6-0.8c-0.1-0.3-0.2-0.6-0.2-1c0-0.7,0.3-1.3,0.8-1.7
			c0.5-0.5,1.2-0.7,2-0.7c1,0,1.8,0.2,2.3,0.6l-0.5,1.4c-0.6-0.4-1.2-0.6-1.8-0.6c-0.4,0-0.7,0.1-0.9,0.3c-0.2,0.2-0.3,0.4-0.3,0.8
			c0,0.5,0.6,1.1,1.7,1.6c0.6,0.3,1,0.6,1.3,0.8c0.3,0.2,0.5,0.5,0.6,0.9c0.1,0.3,0.2,0.7,0.2,1.1c0,0.7-0.3,1.3-0.9,1.8
			s-1.4,0.7-2.3,0.7C96.5,63.9,95.8,63.7,95.1,63.2z"/>
		<path class="st0" d="M104.3,63.7v-9h1.6v9H104.3z"/>
		<path class="st0" d="M109.6,59.1c0-1.3,0.4-2.4,1.1-3.3c0.7-0.9,1.6-1.3,2.8-1.3c1.3,0,2.3,0.4,3,1.2s1,1.9,1,3.4
			c0,1.5-0.4,2.6-1.1,3.5s-1.7,1.3-3.1,1.3c-1.2,0-2.1-0.4-2.8-1.3C109.9,61.8,109.6,60.6,109.6,59.1z M111.3,59.1
			c0,1.1,0.2,1.9,0.5,2.5c0.4,0.6,0.9,0.9,1.6,0.9c0.8,0,1.4-0.3,1.8-0.9c0.4-0.6,0.6-1.4,0.6-2.5c0-2.1-0.8-3.2-2.3-3.2
			c-0.7,0-1.3,0.3-1.6,0.9C111.4,57.4,111.3,58.2,111.3,59.1z"/>
		<path class="st0" d="M127.1,63.9l-4.4-5.7v5.6h-1.5v-9h0.8l4.3,5.5v-5.5h1.5v9.2H127.1z"/>
		<path class="st0" d="M137.1,63.7l-0.7-1.8h-3.1l-0.6,1.8H131l3.6-9.2h0.7l3.6,9.2H137.1z M134.9,57.3l-1.1,3.3h2.2L134.9,57.3z"/>
		<path class="st0" d="M142.1,63.7v-9h1.6v7.6h4.1v1.4H142.1z"/>
		<path class="st0" d="M157,63.7v-9h1.6v9H157z"/>
		<path class="st0" d="M166.5,56.1v7.6h-1.6v-7.6H162v-1.4h7.5v1.4H166.5z"/>
	</g>
	<g>
		<path class="st0" d="M49.6,13.9c-2-2-5.2-3-9.4-3c-3,0-5.7,0.5-7.9,1.6l-0.8,0.4l1.9,6.7l1.1-0.6c1.4-0.7,3.1-1,5.2-1
			c3.1,0,4.2,1,4.6,2.2c-0.5-0.1-0.9-0.1-1.3-0.1c-4.3,0-7.8,0.9-10.2,2.7c-2.5,1.9-3.8,4.5-3.8,7.9c0,2.9,0.9,5.1,2.7,6.7
			c1.8,1.6,4.2,2.3,7.3,2.3c1.6,0,3.2-0.3,4.7-0.9c0.9-0.4,1.6-0.8,2.2-1.3c0,0.9,0,2.3,0,2.3s2.8,0,3.9,0c0.9,0,4.2,0,4.2,0
			s0-6.4,0-9.4v-5.5C54.1,19.5,51.7,15.9,49.6,13.9z M46,30.8c-5.2,4.1-8.5,1.3-8.4-1.1c0-2.7,3.3-4.4,8.4-2.1V30.8z"/>
	</g>
</g>
</svg>
