<svg width="444" height="135" viewBox="0 0 6622 2011" fill="none" xmlns="http://www.w3.org/2000/svg">
<path d="M2690.74 784.968L2423.03 1073.33L2426.59 1046.98L2428.01 1116.05V1181.55H2301.28V945.88V604.12H2428.01V822.704L2422.32 968.664L2407.37 950.864L2544.07 784.968H2690.74ZM2458.63 1015.66L2542.65 926.656L2700 1181.55H2556.89L2458.63 1015.66ZM2844.95 1187.25C2818.84 1187.25 2796.06 1181.91 2776.6 1171.23C2757.37 1160.31 2742.42 1145.36 2731.74 1126.37C2721.3 1107.15 2716.08 1085.19 2716.08 1060.51C2716.08 1037.25 2722.37 1017.08 2734.95 999.992C2747.76 982.666 2765.21 969.376 2787.28 960.12C2803.18 953.237 2820.5 948.134 2839.25 944.812C2858 941.252 2876.75 938.878 2895.5 937.692C2914.49 936.505 2932.29 935.912 2948.9 935.912L2967.41 958.696L2948.9 997.856C2940.6 998.093 2931.93 998.805 2922.91 999.992C2914.13 1000.94 2905.83 1002.37 2897.99 1004.26C2890.16 1005.93 2883.87 1007.82 2879.13 1009.96C2871.77 1013.05 2864.77 1017.67 2858.12 1023.84C2851.71 1029.78 2848.51 1039.86 2848.51 1054.1C2848.51 1072.85 2853.61 1086.5 2863.82 1095.04C2874.26 1103.35 2886.01 1107.5 2899.06 1107.5C2905.94 1107.5 2912.71 1106.67 2919.35 1105.01C2926.24 1103.35 2932.29 1101.33 2937.51 1098.96C2942.73 1096.35 2946.53 1093.74 2948.9 1091.13L2969.55 1117.47L2955.31 1148.09C2944.39 1157.58 2929.92 1166.48 2911.88 1174.79C2894.08 1183.09 2871.77 1187.25 2844.95 1187.25ZM3077.06 1181.55H2955.31V1122.46H2948.9V912.416C2948.9 894.853 2944.04 883.342 2934.31 877.884C2924.81 872.425 2911.17 869.696 2893.37 869.696C2878.18 869.696 2862.28 870.882 2845.66 873.256C2829.29 875.629 2813.38 878.952 2797.96 883.224C2782.53 887.258 2769 892.005 2757.37 897.464L2731.03 821.992C2740.76 816.058 2754.76 809.769 2773.04 803.124C2791.55 796.241 2812.32 790.426 2835.34 785.68C2858.36 780.933 2881.74 778.56 2905.47 778.56C2947 778.56 2980.35 783.425 3005.51 793.156C3030.66 802.886 3048.82 818.669 3059.97 840.504C3071.37 862.338 3077.06 891.53 3077.06 928.08V1181.55ZM3246.65 1189.38C3225.29 1189.38 3207.97 1182.38 3194.68 1168.38C3181.39 1154.14 3174.74 1136.7 3174.74 1116.05C3174.74 1102.05 3178.06 1089.11 3184.71 1077.24C3191.59 1065.14 3200.85 1055.41 3212.48 1048.05C3224.34 1040.69 3237.63 1037.02 3252.35 1037.02C3274.18 1037.02 3291.51 1044.02 3304.32 1058.02C3317.14 1071.79 3323.55 1088.99 3323.55 1109.64C3323.55 1123.64 3320.11 1136.7 3313.22 1148.8C3306.58 1160.9 3297.44 1170.75 3285.81 1178.35C3274.18 1185.71 3261.13 1189.38 3246.65 1189.38ZM3246.65 933.776C3225.29 933.776 3207.97 926.774 3194.68 912.772C3181.39 898.532 3174.74 881.088 3174.74 860.44C3174.74 846.437 3178.06 833.502 3184.71 821.636C3191.59 809.532 3200.85 799.801 3212.48 792.444C3224.34 785.086 3237.63 781.408 3252.35 781.408C3274.18 781.408 3291.51 788.409 3304.32 802.412C3317.14 816.177 3323.55 833.384 3323.55 854.032C3323.55 868.034 3320.11 881.088 3313.22 893.192C3306.58 905.296 3297.44 915.145 3285.81 922.74C3274.18 930.097 3261.13 933.776 3246.65 933.776ZM3403.4 1155.21L3416.21 1066.21C3420.01 1069.53 3427.84 1074.04 3439.71 1079.74C3451.81 1085.19 3466.05 1090.18 3482.43 1094.69C3498.81 1098.96 3515.66 1101.1 3532.98 1101.1C3553.63 1101.33 3568.34 1099.2 3577.13 1094.69C3586.14 1089.94 3590.65 1082.58 3590.65 1072.62C3590.65 1065.73 3587.45 1059.8 3581.04 1054.82C3574.63 1049.59 3565.97 1044.73 3555.05 1040.22C3544.14 1035.71 3532.03 1031.08 3518.74 1026.34C3489.79 1015.89 3466.77 1004.38 3449.68 991.804C3432.83 979.225 3420.72 965.104 3413.37 949.44C3406.01 933.538 3402.45 915.501 3402.69 895.328C3402.69 869.696 3410.04 848.336 3424.76 831.248C3439.71 814.16 3459.65 801.344 3484.57 792.8C3509.49 784.256 3537.02 779.984 3567.16 779.984C3599.67 779.984 3626.85 782.832 3648.68 788.528C3670.52 793.986 3685.82 799.208 3694.61 804.192L3683.21 894.616C3678.47 890.344 3670.99 885.834 3660.79 881.088C3650.58 876.341 3639.07 872.306 3626.25 868.984C3613.44 865.661 3600.62 864 3587.81 864C3565.73 864 3550.07 866.254 3540.81 870.764C3531.79 875.273 3527.29 882.037 3527.29 891.056C3527.29 901.736 3532.15 909.568 3541.88 914.552C3551.61 919.536 3566.92 925.944 3587.81 933.776C3619.13 945.168 3644.29 956.678 3663.28 968.308C3682.5 979.937 3696.39 993.109 3704.93 1007.82C3713.71 1022.54 3718.1 1040.34 3718.1 1061.22C3718.1 1102.52 3702.79 1133.85 3672.18 1155.21C3641.8 1176.57 3601.33 1187.25 3550.78 1187.25C3528.95 1187.25 3508.18 1185.47 3488.48 1181.91C3468.78 1178.59 3451.46 1174.43 3436.51 1169.45C3421.79 1164.46 3410.75 1159.72 3403.4 1155.21ZM3973.46 1187.25C3909.38 1187.25 3860.49 1169.09 3826.79 1132.78C3793.09 1096.23 3776.24 1045.8 3776.24 981.48C3776.24 943.032 3784.07 908.618 3799.73 878.24C3815.4 847.861 3837.94 823.89 3867.37 806.328C3897.04 788.765 3932.88 779.984 3974.88 779.984C3996.01 779.984 4016.42 782.476 4036.12 787.46C4055.81 792.206 4073.5 800.632 4089.16 812.736C4104.82 824.602 4117.4 840.978 4126.9 861.864C4136.39 882.749 4141.25 909.093 4141.49 940.896C4141.49 955.136 4141.02 968.664 4140.07 981.48C4139.36 994.296 4138.41 1004.98 4137.22 1013.52H3842.45L3849.57 949.44H4021.88C4023.06 930.216 4022.11 914.196 4019.03 901.38C4016.18 888.326 4010.84 878.596 4003.01 872.188C3995.41 865.78 3985.09 862.576 3972.04 862.576C3957.08 862.576 3944.39 866.729 3933.94 875.036C3923.74 883.105 3916.02 897.108 3910.8 917.044C3905.58 936.98 3903.21 964.629 3903.68 999.992C3904.16 1023.01 3908.31 1041.64 3916.14 1055.88C3924.21 1069.89 3935.6 1080.09 3950.32 1086.5C3965.03 1092.91 3982.72 1096.11 4003.36 1096.11C4016.18 1096.11 4029.59 1095.16 4043.59 1093.26C4057.59 1091.37 4070.53 1088.87 4082.4 1085.79C4094.5 1082.7 4103.76 1079.5 4110.16 1076.18L4130.1 1144.53C4121.32 1151.65 4109.1 1158.53 4093.43 1165.18C4078 1171.58 4059.97 1176.92 4039.32 1181.2C4018.91 1185.23 3996.96 1187.25 3973.46 1187.25ZM4228.86 1181.55V784.968H4346.34L4349.18 831.248C4357.49 822.941 4368.41 814.872 4381.94 807.04C4395.46 799.208 4410.53 792.681 4427.15 787.46C4443.76 782.238 4460.97 779.509 4478.77 779.272C4519.11 778.56 4549.37 789.596 4569.55 812.38C4589.72 834.926 4599.81 874.68 4599.81 931.64V1181.55H4470.94V955.136C4470.94 926.181 4467.26 906.364 4459.9 895.684C4452.54 884.766 4439.37 879.664 4420.38 880.376C4414.21 880.376 4407.33 881.325 4399.74 883.224C4392.14 885.122 4384.55 887.97 4376.95 891.768C4369.59 895.565 4362.95 900.312 4357.02 906.008V1181.55H4228.86ZM4990.41 1181.55V602.696H5048.8V1181.55H4990.41ZM5193.66 1181.55V785.68H5251.33V1181.55H5193.66ZM5219.29 698.816C5209.09 698.816 5200.19 695.374 5192.59 688.492C5185.23 681.609 5181.56 671.997 5181.56 659.656C5181.56 650.874 5183.69 643.161 5187.96 636.516C5192.24 629.633 5197.58 624.293 5203.98 620.496C5210.63 616.698 5217.39 614.8 5224.28 614.8C5237.09 614.8 5246.59 618.597 5252.76 626.192C5258.93 633.549 5262.01 642.805 5262.01 653.96C5262.01 667.488 5257.62 678.405 5248.84 686.712C5240.3 694.781 5230.45 698.816 5219.29 698.816ZM5396.82 1181.55V785.68H5448.8V836.232C5458.29 829.112 5470.75 821.28 5486.18 812.736C5501.84 803.954 5519.05 796.36 5537.8 789.952C5556.55 783.306 5575.54 779.746 5594.76 779.272C5637.96 778.56 5668.57 790.07 5686.61 813.804C5704.65 837.3 5713.66 878.24 5713.66 936.624V1181.55H5655.28V935.912C5655.28 896.752 5649.7 868.628 5638.55 851.54C5627.39 834.214 5604.73 826.264 5570.55 827.688C5558.21 827.925 5545.04 830.417 5531.04 835.164C5517.03 839.91 5503.39 845.962 5490.1 853.32C5476.81 860.677 5465.18 868.272 5455.21 876.104V1181.55H5396.82ZM5957.04 1187.25C5931.64 1187.25 5911.23 1183.21 5895.8 1175.14C5880.38 1166.84 5868.75 1155.21 5860.92 1140.26C5853.08 1125.07 5847.74 1107.15 5844.9 1086.5C5842.28 1065.85 5840.98 1042.95 5840.98 1017.79V784.968H5898.65V1019.93C5898.65 1053.15 5901.14 1078.31 5906.13 1095.4C5911.35 1112.49 5919.89 1124 5931.76 1129.93C5943.63 1135.87 5959.88 1138.83 5980.53 1138.83C5993.82 1138.83 6007.47 1136.93 6021.47 1133.14C6035.47 1129.34 6048.41 1124.59 6060.28 1118.9C6072.38 1113.2 6082.11 1107.5 6089.47 1101.81V784.968H6147.85V1185.82H6125.07C6115.81 1185.82 6108.57 1184.4 6103.35 1181.55C6098.37 1178.94 6095.88 1172.53 6095.88 1162.33V1130.29L6096.59 1140.26C6084.25 1149.04 6070.24 1156.99 6054.58 1164.11C6038.92 1171.23 6022.66 1176.92 6005.81 1181.2C5988.96 1185.23 5972.7 1187.25 5957.04 1187.25ZM6233.05 1181.55L6380.43 972.224L6381.14 990.736L6233.05 784.968H6298.55L6393.25 923.808L6417.45 962.968H6397.52L6418.88 921.672L6513.57 784.968H6578.37L6429.56 990.024V970.088L6579.79 1181.55H6512.86L6416.74 1039.86L6390.4 997.856L6413.89 998.568L6390.4 1042.71L6299.26 1181.55H6233.05ZM2323.29 1495.55V1370.73H2395.7V1385.85H2343.11V1425.33H2382.42V1440.45H2343.11V1495.55H2323.29ZM2486.21 1496.9C2474.62 1497.12 2464.6 1494.49 2456.14 1489C2447.69 1483.46 2441.22 1475.78 2436.74 1465.98C2432.26 1456.13 2430.16 1444.87 2430.44 1432.22C2430.72 1418.27 2433.46 1406.65 2438.67 1397.36C2443.93 1388.06 2450.91 1381.09 2459.59 1376.44C2468.32 1371.79 2478.04 1369.44 2488.73 1369.38C2499.82 1369.33 2509.48 1371.93 2517.71 1377.2C2525.95 1382.4 2532.27 1389.8 2536.7 1399.37C2541.18 1408.95 2543.28 1420.18 2543 1433.06C2542.72 1447 2540.09 1458.68 2535.1 1468.08C2530.12 1477.44 2523.4 1484.52 2514.94 1489.34C2506.49 1494.15 2496.91 1496.67 2486.21 1496.9ZM2486.72 1481.78C2497.81 1481.78 2506.63 1477.6 2513.18 1469.26C2519.73 1460.86 2523.01 1448.51 2523.01 1432.22C2523.01 1423.59 2521.69 1415.67 2519.06 1408.44C2516.48 1401.16 2512.59 1395.34 2507.38 1390.97C2502.23 1386.55 2495.79 1384.34 2488.06 1384.34C2481.29 1384.34 2475.04 1386.07 2469.33 1389.54C2463.62 1393.02 2459.03 1398.36 2455.55 1405.59C2452.14 1412.81 2450.43 1422.08 2450.43 1433.39C2450.43 1441.96 2451.77 1449.94 2454.46 1457.33C2457.21 1464.67 2461.27 1470.58 2466.64 1475.06C2472.02 1479.54 2478.71 1481.78 2486.72 1481.78ZM2614.01 1495.55H2594.18V1370.73C2595.19 1370.73 2596.17 1370.73 2597.12 1370.73C2598.07 1370.73 2599.03 1370.73 2599.98 1370.73C2600.93 1370.73 2601.91 1370.73 2602.92 1370.73C2606.89 1370.73 2611.6 1370.5 2617.03 1370.06C2622.46 1369.61 2628.45 1369.38 2635.01 1369.38C2641.28 1369.38 2647.02 1370.06 2652.23 1371.4C2657.43 1372.69 2661.94 1374.76 2665.75 1377.62C2669.61 1380.42 2672.58 1384.08 2674.65 1388.62C2676.78 1393.1 2677.85 1398.56 2677.85 1405C2677.85 1412.5 2676.59 1418.83 2674.07 1423.98C2671.55 1429.14 2667.93 1433.2 2663.23 1436.16C2658.58 1439.13 2653.04 1441.12 2646.6 1442.13C2644.3 1442.46 2641.92 1442.74 2639.46 1442.97C2637.05 1443.14 2633.89 1443.28 2629.97 1443.39C2626.05 1443.44 2620.73 1443.47 2614.01 1443.47V1495.55ZM2614.01 1429.36C2615.18 1429.53 2616.97 1429.67 2619.38 1429.78C2621.85 1429.84 2624.34 1429.86 2626.86 1429.86C2629.38 1429.86 2631.37 1429.86 2632.82 1429.86C2640.89 1429.86 2647.1 1427.9 2651.47 1423.98C2655.84 1420.01 2658.02 1413.96 2658.02 1405.84C2658.02 1401.02 2657.21 1396.99 2655.59 1393.74C2653.96 1390.44 2651.25 1387.98 2647.44 1386.35C2643.69 1384.67 2638.59 1383.83 2632.15 1383.83C2628.9 1383.83 2625.68 1383.97 2622.49 1384.25C2619.35 1384.48 2616.53 1384.84 2614.01 1385.34V1429.36ZM2664.41 1495.55C2663.68 1494.43 2663.06 1493.28 2662.56 1492.11C2662.05 1490.93 2661.16 1489 2659.87 1486.31C2658.13 1482.56 2656.43 1478.33 2654.75 1473.63C2653.07 1468.87 2651.22 1464.25 2649.2 1459.77C2647.24 1455.29 2644.97 1451.51 2642.4 1448.43C2639.82 1445.29 2636.8 1443.47 2633.33 1442.97L2640.89 1437.09L2652.65 1438.1C2655.95 1439.5 2658.89 1442.02 2661.47 1445.66C2664.1 1449.3 2666.51 1453.52 2668.69 1458.34C2670.93 1463.1 2673.06 1467.94 2675.07 1472.87C2677.15 1477.8 2679.3 1482.28 2681.54 1486.31C2682.38 1487.88 2683.22 1489.45 2684.06 1491.02C2684.9 1492.53 2685.74 1494.04 2686.58 1495.55H2664.41ZM2793.54 1495.55V1370.73H2802.11C2807.26 1370.73 2812.36 1370.5 2817.4 1370.06C2822.44 1369.61 2827.76 1369.38 2833.36 1369.38C2842.43 1369.38 2850.24 1370.81 2856.8 1373.67C2863.35 1376.47 2868.39 1380.89 2871.92 1386.94C2875.44 1392.93 2877.21 1400.74 2877.21 1410.38C2877.21 1423.98 2873.09 1434.6 2864.86 1442.21C2856.68 1449.77 2844.78 1453.55 2829.16 1453.55C2825.24 1453.55 2821.99 1453.52 2819.42 1453.47C2816.9 1453.41 2814.88 1453.38 2813.37 1453.38V1495.55H2793.54ZM2813.37 1438.26C2815.89 1438.6 2818.38 1438.82 2820.84 1438.94C2823.36 1439.05 2825.74 1439.1 2827.98 1439.1C2833.19 1439.1 2838.06 1438.38 2842.6 1436.92C2847.14 1435.41 2850.78 1432.61 2853.52 1428.52C2856.32 1424.38 2857.72 1418.33 2857.72 1410.38C2857.72 1400.8 2855.14 1393.86 2849.99 1389.54C2844.9 1385.18 2837.5 1383.16 2827.82 1383.5C2825.41 1383.55 2822.94 1383.69 2820.42 1383.92C2817.9 1384.14 2815.55 1384.5 2813.37 1385.01V1438.26ZM2946.44 1495.55H2926.61V1370.73C2927.62 1370.73 2928.6 1370.73 2929.55 1370.73C2930.5 1370.73 2931.46 1370.73 2932.41 1370.73C2933.36 1370.73 2934.34 1370.73 2935.35 1370.73C2939.32 1370.73 2944.03 1370.5 2949.46 1370.06C2954.89 1369.61 2960.88 1369.38 2967.44 1369.38C2973.71 1369.38 2979.45 1370.06 2984.66 1371.4C2989.86 1372.69 2994.37 1374.76 2998.18 1377.62C3002.04 1380.42 3005.01 1384.08 3007.08 1388.62C3009.21 1393.1 3010.28 1398.56 3010.28 1405C3010.28 1412.5 3009.02 1418.83 3006.5 1423.98C3003.98 1429.14 3000.36 1433.2 2995.66 1436.16C2991.01 1439.13 2985.47 1441.12 2979.03 1442.13C2976.73 1442.46 2974.35 1442.74 2971.89 1442.97C2969.48 1443.14 2966.32 1443.28 2962.4 1443.39C2958.48 1443.44 2953.16 1443.47 2946.44 1443.47V1495.55ZM2946.44 1429.36C2947.61 1429.53 2949.4 1429.67 2951.81 1429.78C2954.28 1429.84 2956.77 1429.86 2959.29 1429.86C2961.81 1429.86 2963.8 1429.86 2965.25 1429.86C2973.32 1429.86 2979.53 1427.9 2983.9 1423.98C2988.27 1420.01 2990.45 1413.96 2990.45 1405.84C2990.45 1401.02 2989.64 1396.99 2988.02 1393.74C2986.39 1390.44 2983.68 1387.98 2979.87 1386.35C2976.12 1384.67 2971.02 1383.83 2964.58 1383.83C2961.33 1383.83 2958.11 1383.97 2954.92 1384.25C2951.78 1384.48 2948.96 1384.84 2946.44 1385.34V1429.36ZM2996.84 1495.55C2996.11 1494.43 2995.49 1493.28 2994.99 1492.11C2994.48 1490.93 2993.59 1489 2992.3 1486.31C2990.56 1482.56 2988.86 1478.33 2987.18 1473.63C2985.5 1468.87 2983.65 1464.25 2981.63 1459.77C2979.67 1455.29 2977.4 1451.51 2974.83 1448.43C2972.25 1445.29 2969.23 1443.47 2965.76 1442.97L2973.32 1437.09L2985.08 1438.1C2988.38 1439.5 2991.32 1442.02 2993.9 1445.66C2996.53 1449.3 2998.94 1453.52 3001.12 1458.34C3003.36 1463.1 3005.49 1467.94 3007.5 1472.87C3009.58 1477.8 3011.73 1482.28 3013.97 1486.31C3014.81 1487.88 3015.65 1489.45 3016.49 1491.02C3017.33 1492.53 3018.17 1494.04 3019.01 1495.55H2996.84ZM3113.65 1496.9C3102.06 1497.12 3092.04 1494.49 3083.58 1489C3075.13 1483.46 3068.66 1475.78 3064.18 1465.98C3059.7 1456.13 3057.6 1444.87 3057.88 1432.22C3058.16 1418.27 3060.9 1406.65 3066.11 1397.36C3071.37 1388.06 3078.35 1381.09 3087.03 1376.44C3095.76 1371.79 3105.48 1369.44 3116.17 1369.38C3127.26 1369.33 3136.92 1371.93 3145.15 1377.2C3153.39 1382.4 3159.71 1389.8 3164.14 1399.37C3168.62 1408.95 3170.72 1420.18 3170.44 1433.06C3170.16 1447 3167.53 1458.68 3162.54 1468.08C3157.56 1477.44 3150.84 1484.52 3142.38 1489.34C3133.93 1494.15 3124.35 1496.67 3113.65 1496.9ZM3114.16 1481.78C3125.25 1481.78 3134.07 1477.6 3140.62 1469.26C3147.17 1460.86 3150.45 1448.51 3150.45 1432.22C3150.45 1423.59 3149.13 1415.67 3146.5 1408.44C3143.92 1401.16 3140.03 1395.34 3134.82 1390.97C3129.67 1386.55 3123.23 1384.34 3115.5 1384.34C3108.73 1384.34 3102.48 1386.07 3096.77 1389.54C3091.06 1393.02 3086.47 1398.36 3082.99 1405.59C3079.58 1412.81 3077.87 1422.08 3077.87 1433.39C3077.87 1441.96 3079.21 1449.94 3081.9 1457.33C3084.65 1464.67 3088.71 1470.58 3094.08 1475.06C3099.46 1479.54 3106.15 1481.78 3114.16 1481.78ZM3221.62 1495.55V1370.73H3294.03V1385.85H3241.45V1425.33H3280.76V1440.45H3241.45V1495.55H3221.62ZM3338.94 1495.55V1370.73H3411.52V1385.85H3358.76V1423.82H3397.91V1438.77H3358.76V1480.1H3417.4V1495.55H3338.94ZM3498.26 1496.9C3492.83 1496.9 3487.67 1496.48 3482.8 1495.64C3477.99 1494.85 3473.84 1493.9 3470.37 1492.78C3466.9 1491.66 3464.41 1490.62 3462.89 1489.67L3467.01 1473.63C3469.14 1474.86 3471.8 1476.06 3474.99 1477.24C3478.18 1478.42 3481.68 1479.4 3485.49 1480.18C3489.3 1480.91 3493.16 1481.27 3497.08 1481.27C3504.75 1481.27 3510.61 1479.98 3514.64 1477.41C3518.67 1474.83 3520.69 1470.63 3520.69 1464.81C3520.69 1460.89 3519.68 1457.61 3517.66 1454.98C3515.65 1452.29 3512.62 1449.77 3508.59 1447.42C3504.61 1445.07 3499.63 1442.46 3493.64 1439.61C3488.54 1437.09 3483.59 1434.06 3478.77 1430.54C3474.01 1427.01 3470.09 1422.86 3467.01 1418.1C3463.93 1413.34 3462.39 1407.88 3462.39 1401.72C3462.39 1395.68 3463.57 1390.61 3465.92 1386.52C3468.33 1382.38 3471.55 1379.04 3475.58 1376.52C3479.61 1374 3484.09 1372.18 3489.02 1371.06C3494 1369.94 3499.1 1369.38 3504.31 1369.38C3511.92 1369.38 3518.22 1370.14 3523.21 1371.65C3528.19 1373.11 3531.77 1374.56 3533.96 1376.02L3530.09 1391.56C3527.24 1389.77 3523.88 1388.17 3520.01 1386.77C3516.21 1385.32 3510.97 1384.59 3504.31 1384.59C3500.22 1384.59 3496.44 1385.12 3492.97 1386.18C3489.49 1387.25 3486.69 1388.87 3484.57 1391.06C3482.44 1393.24 3481.37 1396.04 3481.37 1399.46C3481.37 1403.32 3482.16 1406.57 3483.73 1409.2C3485.35 1411.78 3487.95 1414.21 3491.54 1416.51C3495.12 1418.75 3499.83 1421.38 3505.65 1424.4C3509.85 1426.59 3513.99 1428.91 3518.08 1431.38C3522.17 1433.78 3525.87 1436.47 3529.17 1439.44C3532.53 1442.41 3535.19 1445.82 3537.15 1449.69C3539.17 1453.5 3540.17 1457.86 3540.17 1462.79C3540.17 1470.41 3538.38 1476.76 3534.8 1481.86C3531.27 1486.9 3526.34 1490.68 3520.01 1493.2C3513.74 1495.66 3506.49 1496.9 3498.26 1496.9ZM3621.81 1496.9C3616.38 1496.9 3611.23 1496.48 3606.35 1495.64C3601.54 1494.85 3597.39 1493.9 3593.92 1492.78C3590.45 1491.66 3587.96 1490.62 3586.45 1489.67L3590.56 1473.63C3592.69 1474.86 3595.35 1476.06 3598.54 1477.24C3601.73 1478.42 3605.23 1479.4 3609.04 1480.18C3612.85 1480.91 3616.71 1481.27 3620.63 1481.27C3628.31 1481.27 3634.16 1479.98 3638.19 1477.41C3642.22 1474.83 3644.24 1470.63 3644.24 1464.81C3644.24 1460.89 3643.23 1457.61 3641.21 1454.98C3639.2 1452.29 3636.17 1449.77 3632.14 1447.42C3628.17 1445.07 3623.18 1442.46 3617.19 1439.61C3612.09 1437.09 3607.14 1434.06 3602.32 1430.54C3597.56 1427.01 3593.64 1422.86 3590.56 1418.1C3587.48 1413.34 3585.94 1407.88 3585.94 1401.72C3585.94 1395.68 3587.12 1390.61 3589.47 1386.52C3591.88 1382.38 3595.1 1379.04 3599.13 1376.52C3603.16 1374 3607.64 1372.18 3612.57 1371.06C3617.55 1369.94 3622.65 1369.38 3627.86 1369.38C3635.47 1369.38 3641.77 1370.14 3646.76 1371.65C3651.74 1373.11 3655.33 1374.56 3657.51 1376.02L3653.65 1391.56C3650.79 1389.77 3647.43 1388.17 3643.57 1386.77C3639.76 1385.32 3634.52 1384.59 3627.86 1384.59C3623.77 1384.59 3619.99 1385.12 3616.52 1386.18C3613.05 1387.25 3610.25 1388.87 3608.12 1391.06C3605.99 1393.24 3604.93 1396.04 3604.93 1399.46C3604.93 1403.32 3605.71 1406.57 3607.28 1409.2C3608.9 1411.78 3611.51 1414.21 3615.09 1416.51C3618.67 1418.75 3623.38 1421.38 3629.2 1424.4C3633.4 1426.59 3637.55 1428.91 3641.63 1431.38C3645.72 1433.78 3649.42 1436.47 3652.72 1439.44C3656.08 1442.41 3658.74 1445.82 3660.7 1449.69C3662.72 1453.5 3663.73 1457.86 3663.73 1462.79C3663.73 1470.41 3661.93 1476.76 3658.35 1481.86C3654.82 1486.9 3649.89 1490.68 3643.57 1493.2C3637.29 1495.66 3630.04 1496.9 3621.81 1496.9ZM3715.96 1495.55V1370.73H3735.79V1495.55H3715.96ZM3845.12 1496.9C3833.53 1497.12 3823.51 1494.49 3815.05 1489C3806.6 1483.46 3800.13 1475.78 3795.65 1465.98C3791.17 1456.13 3789.07 1444.87 3789.35 1432.22C3789.63 1418.27 3792.37 1406.65 3797.58 1397.36C3802.84 1388.06 3809.82 1381.09 3818.5 1376.44C3827.23 1371.79 3836.95 1369.44 3847.64 1369.38C3858.73 1369.33 3868.39 1371.93 3876.62 1377.2C3884.86 1382.4 3891.18 1389.8 3895.61 1399.37C3900.09 1408.95 3902.19 1420.18 3901.91 1433.06C3901.63 1447 3899 1458.68 3894.01 1468.08C3889.03 1477.44 3882.31 1484.52 3873.85 1489.34C3865.4 1494.15 3855.82 1496.67 3845.12 1496.9ZM3845.63 1481.78C3856.72 1481.78 3865.54 1477.6 3872.09 1469.26C3878.64 1460.86 3881.92 1448.51 3881.92 1432.22C3881.92 1423.59 3880.6 1415.67 3877.97 1408.44C3875.39 1401.16 3871.5 1395.34 3866.29 1390.97C3861.14 1386.55 3854.7 1384.34 3846.97 1384.34C3840.2 1384.34 3833.95 1386.07 3828.24 1389.54C3822.53 1393.02 3817.94 1398.36 3814.46 1405.59C3811.05 1412.81 3809.34 1422.08 3809.34 1433.39C3809.34 1441.96 3810.68 1449.94 3813.37 1457.33C3816.12 1464.67 3820.18 1470.58 3825.55 1475.06C3830.93 1479.54 3837.62 1481.78 3845.63 1481.78ZM3953.09 1495.55V1370.73H3971.07L4023.32 1451.54L4039.95 1482.62H4034.07L4031.88 1447.67V1370.73H4050.2V1495.55H4031.38L3981.15 1417.77L3961.83 1382.66H3969.05L3971.07 1420.46V1495.55H3953.09ZM4115.53 1495.55H4094.7L4142.08 1369.38H4161.31L4208.02 1495.55H4186.6L4155.43 1401.72L4151.9 1389.71L4148.21 1401.72L4115.53 1495.55ZM4118.22 1464.89L4121.58 1450.36H4178.87L4182.4 1464.89H4118.22ZM4252.53 1495.55V1370.73H4272.19V1479.93H4321.24V1495.55H4252.53ZM4426.92 1495.55V1370.73H4446.75V1495.55H4426.92ZM4535.59 1495.55V1385.85H4497.12V1370.73H4593.8V1385.85H4555.41V1495.55H4535.59Z" fill="#EA1513"/>
<path d="M1764.49 76.5217C1766.28 77.4135 1767.95 77.5869 1769.51 77.0419C1787.41 70.8091 1805.79 66.4441 1824.65 63.947C1849.85 60.6027 1882.53 63.9321 1901.63 82.4671C1907.6 88.2639 1917.5 101.255 1919.39 109.355C1923.23 125.81 1913.31 145.34 1902.51 157.008C1901.24 158.366 1900.72 159.738 1900.93 161.126C1900.97 161.38 1901.07 161.621 1901.22 161.83C1901.37 162.039 1901.57 162.21 1901.8 162.33C1904.17 163.548 1906.43 165.154 1908.85 166.12C1918.22 169.91 1928.11 172.942 1937.08 177.297C1942.85 180.107 1949.08 182.737 1954.23 186.364C1960.9 191.076 1966.61 196.07 1972.87 201.213C1976.6 204.275 1979.73 207.317 1982.27 210.339C1988.16 217.355 1990.4 223.048 1994.79 230.286C2002.02 242.281 2000.78 255.109 2001.21 268.56C2001.62 281.804 1998.15 291.539 1991.23 301.558C1984.43 311.387 1975.87 318.933 1965.55 324.195C1959.27 327.386 1951.33 329.66 1941.71 331.017C1924.16 333.47 1910.91 333.068 1890.52 331.315C1876.42 330.096 1861.27 330.571 1847.48 327.777C1838.73 326.008 1829.65 326.618 1821.4 323.704C1814.29 321.207 1806.88 321.564 1799.54 319.647C1793.32 318.012 1786.96 317.789 1780.97 316.139C1773.73 314.147 1764.77 312.765 1759.07 311.516C1746.44 308.752 1733.84 305.922 1721.24 303.029C1717.08 302.078 1712.67 300.473 1708.2 299.328C1707.71 299.205 1707.28 298.9 1707.02 298.476C1706.75 298.052 1706.66 297.542 1706.77 297.054C1708.34 290.068 1711.46 283.439 1713.08 276.601C1714.35 271.31 1716 266.747 1716.69 261.113C1717.13 257.477 1717.95 252.859 1719.12 247.261C1721.42 236.187 1721.29 221.323 1718.14 209.046C1717.02 204.736 1716.66 200.098 1715.51 196.144C1712.93 187.276 1710.8 181.642 1709.11 179.244C1702.61 170.044 1697.43 160.605 1689.11 152.267C1683.08 146.203 1675.07 140.956 1668.28 134.951C1666.64 133.504 1662.7 131.294 1656.45 128.322C1636.58 118.898 1617.05 114.171 1595.15 111.481C1594.88 111.448 1594.63 111.355 1594.4 111.208C1594.18 111.062 1594 110.867 1593.86 110.639C1593.73 110.411 1593.66 110.156 1593.64 109.894C1593.63 109.633 1593.68 109.372 1593.79 109.133C1594.06 108.558 1594.46 108.087 1595.01 107.72C1595.42 107.443 1595.7 107.03 1595.81 106.561C1596.88 101.968 1597 97.8213 1598.96 93.377C1600.94 88.8436 1602.03 83.8049 1603.83 79.643C1609.12 67.3954 1614.38 53.5722 1622.45 42.692C1627.49 35.8844 1632.46 29.0323 1637.36 22.1355C1638.92 19.9506 1642.15 17.3494 1644.7 14.9118C1651.6 8.35194 1659.31 4.15047 1667.84 2.30738C1676.92 0.355284 1682.78 -0.358175 1685.43 0.167008C1696.15 2.30738 1705.42 2.69383 1715.07 9.63517C1724.71 16.5765 1735.03 22.8044 1741.52 32.9414C1750.16 46.4376 1756.7 61.0486 1763.49 75.4812C1763.7 75.937 1764.04 76.2838 1764.49 76.5217Z" fill="#EA1513"/>
<path d="M1588 177.938C1577.18 171.1 1564.95 167.652 1553.06 163.089C1550.33 162.038 1547.29 161.27 1543.95 160.785C1537.67 159.863 1531.83 157.842 1525.76 157.485C1520.69 157.188 1515.66 157.044 1510.69 157.054C1509.36 157.054 1509.17 156.608 1510.13 155.716C1514.16 151.896 1521.25 150.99 1524.89 149.637C1530.51 147.556 1534.74 146.303 1537.56 145.877C1544.09 144.881 1553.35 141.819 1562.03 141.417C1574.05 140.843 1586.08 140.798 1598.1 141.284C1606.32 141.611 1613.38 144.256 1621.36 146.218C1633.95 149.31 1645.42 154.22 1655.75 160.948C1663.24 165.838 1670.41 176.332 1675.08 183.913C1683.17 197.022 1687.19 212.897 1689.53 227.939C1690.18 232.116 1690.15 236.857 1690.44 241.316C1691.31 254.158 1689.92 266.198 1686.29 277.435C1683.5 286.041 1677.34 293.502 1672.07 300.801C1667.91 306.538 1662.57 308.946 1657.2 313.212C1657.02 313.357 1656.8 313.449 1656.56 313.478C1656.33 313.507 1656.09 313.472 1655.88 313.376C1655.67 313.279 1655.48 313.127 1655.36 312.935C1655.23 312.743 1655.16 312.519 1655.15 312.29C1654.94 304.036 1653.93 295.801 1652.11 287.587C1650.58 280.616 1651.26 273.749 1649.36 267.238C1646.11 256.046 1643.48 244.096 1638.62 234.033C1636.12 228.88 1633.37 223.861 1630.36 218.976C1625.14 210.489 1617.62 202.537 1610.8 194.6C1604.79 187.599 1595.79 182.872 1588 177.938Z" fill="#EA1513"/>
<path d="M1372.92 201.152C1381.6 194.999 1392.55 190.346 1402.5 186.482C1411.47 182.994 1423.7 179.758 1439.16 176.776C1450.66 174.576 1463.33 174.234 1475.54 172.926C1477.77 172.698 1480.14 172.713 1482.65 172.971C1491.11 173.863 1499.34 173.892 1507.79 174.442C1514.31 174.873 1520.66 176.82 1527.2 178.099C1530.29 178.713 1533.62 179.6 1537.16 180.759C1541.56 182.216 1546.23 183.167 1550.34 184.891C1561.14 189.41 1568.31 194.865 1577.25 200.498C1583.04 204.155 1590.48 210.789 1599.57 220.401C1605.13 226.287 1610.12 233.297 1614.53 241.433C1617.78 247.438 1619.69 254.587 1622.08 261.291C1627.35 276.035 1629.81 292.519 1629.19 308.929C1629.05 312.367 1628.21 318.536 1626.65 327.434C1625.75 332.597 1624.35 338.265 1622.45 344.438C1620.12 351.929 1617.97 360.149 1615.52 366.852C1608.56 385.888 1598.87 403.813 1586.45 420.629C1586.17 421.009 1585.8 421.311 1585.37 421.506C1584.1 422.081 1583.36 421.709 1583.14 420.391C1581.6 411.334 1580.35 402.243 1579.39 393.116C1578.31 382.727 1576.52 373.913 1574.35 364.296C1573.48 360.402 1571.46 356.76 1570.57 353.178C1566.64 337.502 1561.44 322.261 1554.97 307.457C1549.19 294.273 1539.91 281.862 1531.83 269.347C1529.66 265.973 1526.34 261.989 1523.36 259.165C1511.84 248.211 1502.21 237.568 1486.97 229.126C1471.81 220.743 1458.07 213.221 1441.06 209.669C1435.19 208.435 1429.87 206.518 1423.91 205.953C1406.69 204.303 1389.48 200.171 1372.37 203.605C1372.24 203.629 1372.11 203.618 1371.98 203.571C1371.86 203.525 1371.75 203.445 1371.67 203.342C1371.59 203.238 1371.54 203.115 1371.52 202.985C1371.51 202.856 1371.53 202.725 1371.59 202.609C1371.88 202.064 1372.32 201.578 1372.92 201.152Z" fill="#EA1513"/>
<path d="M1529.13 516.485C1524.48 525.73 1519.19 534.737 1513.26 543.507C1512.59 544.498 1511.88 544.523 1511.12 543.581C1510.8 543.175 1510.64 542.372 1510.66 541.173C1510.86 532.478 1508.92 523.724 1508.83 515.593C1508.72 506.274 1508.66 498.277 1506.61 488.779C1503.37 473.811 1500.94 458.754 1494.74 444.887C1485.95 425.267 1478.54 406.063 1465.65 387.572C1459.77 379.145 1453.96 369.245 1447.53 361.576C1442.54 355.63 1437.53 349.72 1432.47 343.843C1421.95 331.625 1410.66 320.121 1398.62 309.33C1395.04 306.134 1390.43 303.102 1386.47 299.788C1371.73 287.391 1354.14 280.301 1335.79 276.125C1321.47 272.869 1308.47 268.485 1292.69 268.752C1286.18 268.856 1278.69 267.251 1271.43 268.054C1261.94 269.094 1253.27 268.797 1244.16 269.837C1240.43 270.268 1237.24 272.186 1233.48 272.528C1227.33 273.092 1221.08 273.588 1214.72 274.014C1213.04 274.123 1212.76 273.533 1213.87 272.245C1217.05 268.559 1224.45 264.962 1228.79 262.524C1247.46 252.06 1261.11 245.144 1269.72 241.775C1278.47 238.346 1290.85 235.012 1306.85 231.771C1312.68 230.597 1318.65 230.508 1324.58 229.453C1341.82 226.376 1362.46 227.045 1379.01 227.312C1384.38 227.392 1390.19 227.971 1396.43 229.051C1404.17 230.389 1412.13 231.489 1419.43 233.481C1428.39 235.928 1437.2 238.782 1445.86 242.042C1451.91 244.331 1456.89 248.3 1462.44 251.466C1481.64 262.435 1497.53 276.779 1509.97 294.674C1515.97 303.285 1519.43 308.28 1520.35 309.657C1532.69 327.924 1538.59 352.078 1546.01 373.868C1547.54 378.312 1549.02 385.268 1551.09 390.813C1553.56 397.486 1553.46 405.528 1554.8 412.588C1555.31 415.263 1555.43 420.956 1555.15 429.666C1554.94 436.385 1553.18 444.411 1552.54 451.977C1552.28 455.247 1551.74 458.185 1550.94 460.791C1547.38 472.315 1544.89 479.692 1543.46 482.923C1538.59 493.966 1534.52 505.738 1529.13 516.485Z" fill="#EA1513"/>
<path d="M1422.29 666.491C1419.53 672.338 1417.03 677.149 1414.78 680.924C1406.49 694.955 1398.45 708.942 1389.37 722.542C1388.07 724.489 1385.87 726.838 1384.45 729.142C1379.29 737.614 1373.57 745.685 1367.3 753.355C1362.73 758.933 1358.27 764.562 1353.89 770.24C1349.51 775.947 1344.85 781.432 1339.91 786.694C1334.09 792.877 1326.86 801.617 1319.34 808.291C1305.59 820.489 1296.14 828.272 1290.99 831.641C1278.59 839.757 1266.41 849.181 1254.11 855.944C1235.7 866.071 1216.72 875.043 1197.18 882.862C1179.65 889.877 1155.37 897.25 1138.98 903.002C1129.35 906.361 1120.05 908.056 1110.49 911.028C1106.07 912.396 1101.68 912.842 1097.21 914.254C1094.61 915.066 1091.95 915.666 1089.24 916.052C1078.73 917.539 1068.38 919.887 1057.96 921.864C1054.18 922.592 1045.85 923.529 1039.92 925.134C1036.88 925.956 1034.16 926.526 1031.78 926.843C1022.73 928.062 1014.14 930.143 1004.95 931.525C997.25 932.685 960.324 940.354 974.767 919.084C976.143 917.053 976.989 915.458 977.305 914.298C981.446 898.944 970.305 887.232 956.702 881.509C953.401 880.132 949.009 878.977 943.528 878.046C936.543 876.872 930.216 875.133 923.093 876.976C921.096 877.491 918.804 877.897 916.216 878.194C900.168 879.978 884.181 890.843 874.14 902.809C869.636 908.179 865.071 913.496 860.445 918.757C854.256 925.818 848.219 933.785 841.998 941.291C828.564 957.462 808.924 964.731 791.21 975.433C774.291 985.659 757.006 994.205 739.399 1004.43C726.082 1012.17 712.041 1018.48 697.277 1023.37C693.15 1024.74 688.978 1024.96 684.759 1024.05C684.387 1023.97 684.035 1023.82 683.729 1023.59C683.423 1023.37 683.169 1023.09 682.984 1022.76C682.799 1022.44 682.687 1022.08 682.656 1021.71C682.625 1021.34 682.675 1020.97 682.803 1020.62C686.899 1009.5 695.993 998.798 703.528 989.687C706.411 986.209 709.713 981.824 713.432 976.533C719.362 968.06 727.63 959.915 733.102 952.825C743.892 938.823 754.682 924.837 764.815 910.389C770.256 902.63 774.521 893.742 779.549 885.671C781.536 882.49 784.012 877.199 785.571 873.037C790.686 859.273 794.145 845.385 795.948 831.374C797.049 822.803 798.093 815.465 799.081 809.361C800.488 800.651 800.09 792.416 802.169 783.558C804.477 773.688 803.789 764.205 806.677 754.365C807.982 749.926 808.787 745.402 809.092 740.795C809.597 733.08 811.966 726.481 812.944 719.005C813.637 713.743 814.329 709.695 815.022 706.861C819.76 687.627 824.228 670.673 828.426 655.998C830.81 647.644 835.319 638.666 838.024 631.249C840.882 623.387 843.756 615.598 847.347 607.854C849.976 602.186 852.605 596.518 855.234 590.85C857.037 586.986 859.737 581.952 863.334 575.749C867.17 569.134 870.655 561.539 874.14 555.579C884.563 537.732 892.607 525.356 898.273 518.449C903.576 511.998 908.069 505.102 913.679 499.082C918.783 493.612 923.766 488.038 928.626 482.36C936.497 473.16 945.759 464.999 954.18 456.037C958.48 451.459 962.943 447.213 967.569 443.298C976.25 435.956 984.839 427.588 993.123 420.914C1004.23 411.966 1015.46 403.172 1026.82 394.531C1035.2 388.169 1044.57 382.61 1052.99 376.204C1065.57 366.632 1078.56 360.121 1091.28 351.976C1099.27 346.863 1106.94 343.013 1115.1 338.688C1123.05 334.482 1131.61 331.152 1139.8 327.154C1145.7 324.27 1150.65 322.046 1154.66 320.48C1169.34 314.743 1180.05 311.17 1186.78 309.763C1192.68 308.53 1198.43 306.627 1203.08 305.765C1210.35 304.398 1217.24 302.614 1224.66 301.93C1234 301.078 1243.29 299.834 1252.52 298.199C1255.69 297.635 1258.86 297.6 1262.02 298.095C1271.35 299.552 1280.7 300.756 1290.09 301.707C1293.69 302.074 1297.38 302.738 1301.15 303.699C1306.1 304.962 1310.9 305.78 1315.61 307.549C1327.79 312.117 1337.59 316.368 1345.03 320.302C1349.94 322.918 1355.53 328.224 1360.31 331.345C1363.94 333.724 1367.74 335.923 1371.07 338.554C1386.28 350.534 1397.86 360.949 1405.81 369.798C1416.43 381.619 1422.87 389.358 1425.13 393.015C1429.42 399.951 1433.78 406.843 1438.21 413.69C1444.6 423.56 1447.8 433.251 1451.71 444.116C1454.32 451.355 1455.81 459.143 1457.84 466.857C1458.61 469.771 1459.23 473.061 1459.69 476.727C1461.19 488.677 1463.89 501.445 1463.95 515.224C1464 528.036 1460.99 542.588 1459.67 556.366C1459.31 560.122 1458.63 564.224 1457.64 568.673C1454.52 582.764 1451.77 596.26 1446.61 611.466C1440.46 629.555 1430.89 648.358 1422.29 666.491Z" fill="#EA1513"/>
<path d="M821.824 465.118C808.879 459.38 800.84 460.54 788.689 459.826C782.27 459.44 771.709 454.475 774.261 446.568C778.22 434.335 807.84 435.554 818.339 438.006C826.363 439.879 833.975 441.157 841.357 445.721C852.33 452.483 864.221 468.298 865.276 481.022C865.836 487.7 866.152 491.372 866.223 492.036C867.018 498.531 867.477 508.401 864.527 514.45C864.242 515.035 863.931 515.045 863.595 514.48C859.819 507.999 856.717 500.805 852.743 494.994C843.267 481.155 835.931 471.345 821.824 465.118Z" fill="#EA1513"/>
<path d="M803.346 583.225C782.529 556.218 757.128 537.104 721.196 533.462C714.196 532.749 707.655 531.649 700.563 532.124C682.202 533.373 663.816 534.101 645.404 534.309C642.266 534.339 639.984 534.131 638.557 533.685C634.308 532.377 630.12 528.512 632.382 523.682C633.834 520.575 641.14 517.617 644.518 515.7C651.701 511.612 660.122 509.115 667.795 505.905C669.945 505.003 672.762 504.077 676.247 503.125C680.159 502.04 683.766 500.405 687.648 499.603C694.862 498.116 701.327 496.05 708.862 495.366C714.741 494.841 720.574 493.964 726.362 492.736C729.541 492.062 737.06 492.052 748.921 492.706C753.506 492.954 758.554 494.415 764.067 497.091C779.182 504.418 792.189 518.925 800.304 533.15C809.597 549.44 814.381 565.3 816.291 583.538C816.76 588.096 816.719 592.58 816.169 596.989C816.163 597.054 816.138 597.116 816.095 597.167C816.053 597.218 815.997 597.255 815.933 597.274C815.869 597.293 815.8 597.293 815.736 597.274C815.672 597.255 815.615 597.218 815.573 597.168C811.37 592.56 807.274 588.324 803.346 583.225Z" fill="#EA1513"/>
<path d="M727.081 679.096C719.195 674.884 711.099 671.144 702.795 667.874C692.402 663.771 686.65 661.537 685.54 661.17C677.699 658.599 669.049 658.078 662.354 657.142C641.446 654.229 619.789 653.53 598.835 656.666C587.617 658.346 577.194 658.614 566.281 658.331C563.826 658.272 561.635 657.855 559.709 657.083C559.467 656.983 559.252 656.833 559.078 656.641C558.905 656.449 558.778 656.222 558.708 655.977C558.637 655.731 558.625 655.473 558.671 655.221C558.717 654.97 558.822 654.733 558.976 654.526C573.327 635.53 604.552 622.866 630.045 615.479C630.157 615.449 632.674 614.582 637.595 612.878C642.776 611.094 649.302 610.886 653.215 610.217C661.978 608.701 667.77 607.844 670.592 607.646C676.415 607.23 682.605 609.92 688.566 610.797C703.055 612.923 719.546 623.357 731.681 631.22C733.362 632.3 735.344 633.945 737.627 636.155C746.338 644.553 755.814 652.757 762.279 663.013C769.738 674.854 776.131 687.216 781.46 700.098C783.753 705.672 783.722 710.324 783.462 716.121C783.444 716.456 783.333 716.78 783.141 717.058C782.949 717.337 782.682 717.559 782.371 717.703C782.059 717.846 781.713 717.904 781.37 717.872C781.026 717.839 780.699 717.717 780.421 717.518C772.458 711.781 765.688 705.241 757.22 699.295C747.271 692.295 737.871 684.863 727.081 679.096Z" fill="#EA1513"/>
<path d="M1434.55 754.513C1437.38 753.026 1440.19 751.5 1442.97 749.935C1448.56 746.769 1453.67 741.715 1458.94 738.594C1470.01 732.024 1483.93 724.994 1497.24 720.921C1503.17 719.108 1509.1 716.759 1514.99 715.852C1525.24 714.267 1535.56 713.9 1545.95 714.753C1555.72 715.555 1562.8 718.929 1571.52 722.675C1581.4 726.896 1588.84 732.901 1595.84 740.526C1605.27 750.782 1611.54 758.808 1614.64 764.605C1620.43 775.471 1627.45 785.786 1631.77 797.157C1634.26 803.697 1636.74 810.232 1639.23 816.762C1640.86 821.057 1641.51 826.245 1643.39 830.942C1644.96 834.881 1644.76 838.626 1645.76 842.134C1648.38 851.35 1653.69 885.432 1640.54 886.889C1615.6 889.653 1582.97 821.89 1575.14 809.538C1570.72 802.562 1567.73 797.722 1566.17 795.016C1555.05 775.604 1541.35 753.859 1515.77 752.239C1502.38 751.396 1487.86 751.377 1472.22 752.179C1463.99 752.595 1456.24 754.438 1448.92 755.211C1443.92 755.746 1438.98 757.188 1433.91 756.594C1433.78 756.577 1433.66 756.529 1433.56 756.455C1433.46 756.381 1433.38 756.283 1433.33 756.169C1433.27 756.056 1433.25 755.932 1433.26 755.809C1433.27 755.685 1433.32 755.567 1433.39 755.464C1433.63 755.097 1434.02 754.78 1434.55 754.513Z" fill="#EA1513"/>
<path d="M740.424 753.368C746.476 754.913 750.964 756.742 753.889 758.852C759.758 763.088 766.773 772.259 762.57 779.379C756.089 790.378 742.395 797.973 731.055 802.507C710.401 810.781 690.884 815.067 672.503 815.364C661.652 815.542 652.889 814.66 646.215 812.718C634.798 809.404 626.056 797.423 623.672 785.206C622.021 776.689 620.233 767.845 619.637 759.506C618.974 750.152 619.178 742.527 620.248 736.631C621.685 728.724 628.624 728.739 635.654 730.047C643.418 731.473 651.045 731.934 658.763 733.658C665.9 735.249 673.328 736.051 680.099 737.761C690.171 740.317 699.265 742.264 710.04 745.594C717.264 747.833 724.62 749.582 732.109 750.841C734.738 751.287 737.734 752.669 740.424 753.368Z" fill="#EA1513"/>
<path d="M1355.55 830.482C1363.85 825.8 1373.83 821.088 1383.62 816.807C1388.61 814.637 1394.78 813.493 1400.5 811.531C1407.28 809.182 1414.79 809.628 1421.86 808.855C1425.21 808.498 1428.72 808.533 1432.39 808.959C1439.32 809.777 1445.95 809.286 1452.52 811.293C1461.84 814.127 1467.74 816.386 1470.24 818.071C1476.73 822.47 1483.27 826.791 1489.86 831.032C1502.52 839.147 1511.53 849.894 1521.82 860.447C1525.06 863.766 1529.34 869.648 1534.66 878.09C1540.53 887.395 1547.14 896.908 1551.78 906.182C1562.55 927.804 1569.81 950.526 1573.55 974.347C1575.22 984.886 1576.72 998.664 1564.77 1004.18C1564.3 1004.4 1563.82 1004.41 1563.35 1004.21C1556.05 1001.25 1551.24 997.178 1545.74 991.753C1538.57 984.707 1534.58 975.982 1528.85 967.941C1519.38 954.653 1510.3 941.127 1501.58 927.363C1499.41 923.935 1496.47 919.802 1492.76 914.967C1486.83 907.208 1481.55 897.903 1476.46 891.007C1472.34 885.428 1469.44 881.875 1467.76 880.349C1462.64 875.712 1457.78 870.064 1452.68 866.273C1442.54 858.752 1430.01 854.264 1418.36 852.346C1411.39 851.202 1404.5 849.299 1397.75 848.913C1386.62 848.303 1375.28 847.144 1364.08 847.248C1363.57 847.258 1359.51 847.634 1351.91 848.378C1346.96 848.863 1341.99 848.61 1336.99 847.62C1335.66 847.352 1334.81 846.995 1334.46 846.549C1333.85 845.796 1333.95 845.152 1334.78 844.617C1341.88 840.009 1349.19 834.079 1355.55 830.482Z" fill="#EA1513"/>
<path d="M775.317 859.973C771.435 874.228 759.07 885.539 746.537 892.198C734.188 898.782 717.819 905.56 703.911 900.076C695.546 896.786 689.993 890.365 687.252 880.812C684.883 872.593 686.763 867.673 690.477 860.746C692.056 857.823 694.303 855.549 697.217 853.924C707.793 848.038 712.822 846.968 722.542 845.794C730.352 844.857 737.963 846.76 745.62 847.978C749.615 848.613 753.644 849.653 757.71 851.1C763.319 853.077 770.533 854.548 774.935 858.636C775.332 859.012 775.459 859.458 775.317 859.973Z" fill="#EA1513"/>
<path d="M1284.14 940.058C1278.58 937.977 1273.12 938.022 1267.5 936.223C1262 934.469 1255.61 934.083 1250.61 933.012C1246.99 932.24 1243.35 931.61 1239.67 931.125C1229.34 929.772 1219.42 927.513 1209.15 926.368C1208.9 926.342 1208.66 926.239 1208.47 926.073C1208.29 925.908 1208.16 925.689 1208.11 925.447C1207.88 924.456 1208.31 923.757 1209.39 923.351C1214.66 921.374 1219.78 919.442 1225.27 918.045C1239.73 914.388 1250.47 912.352 1257.49 911.936C1265.25 911.47 1272.99 910.752 1280.7 909.781C1289.92 908.636 1299 908.725 1307.99 909.706C1319.22 910.925 1330.94 911.728 1341.41 914.046C1355.72 917.227 1368.98 921.181 1382.14 928.003C1395.51 934.93 1406.45 941.832 1414.97 948.708C1422.51 954.793 1432.52 964.771 1444.99 978.644C1453.81 988.454 1460.3 1001.5 1467.39 1012.62C1478.08 1029.36 1483.37 1048.1 1488.68 1064.81C1490.76 1071.36 1490.98 1077.71 1491.66 1084.44C1492.29 1090.34 1491.89 1096.79 1490.49 1103.78C1489.62 1108.13 1487.33 1111.21 1483.61 1113.01C1483.15 1113.23 1482.67 1113.28 1482.17 1113.16C1478.59 1112.31 1475.75 1110.69 1473.68 1108.3C1467.31 1100.97 1460.73 1092.48 1453.93 1082.84C1446.94 1072.92 1439.18 1064.48 1431.55 1055.3C1427.01 1049.81 1422.13 1044.34 1416.93 1038.9C1410.14 1031.8 1403.34 1024.1 1396.83 1017.48C1387.02 1007.51 1377.18 997.57 1367.32 987.651C1360.15 980.442 1352.77 970.796 1342.83 963.929C1336.55 959.589 1327.8 954.763 1316.59 949.452C1311.91 947.237 1306.55 946.211 1301.49 944.576C1296.06 942.822 1289.83 942.183 1284.14 940.058Z" fill="#EA1513"/>
<path d="M872.964 965.058C876.647 957.047 879.46 949.035 885.466 942.257C892.252 934.598 898.564 928.221 904.403 923.128C911.464 916.989 925.464 912.56 933.228 920.452C934.613 921.859 935.867 924.381 936.987 928.018C938.241 932.061 941.511 937.709 940.594 941.856C936.957 958.161 937.599 976.726 930.492 991.887C924.18 1005.35 918.464 1014.44 903.898 1018.97C894.407 1021.93 879.842 1019.22 873.636 1010.36C865.903 999.274 865.108 987.814 869.174 975.344C870.661 970.776 871.925 967.347 872.964 965.058Z" fill="#EA1513"/>
<path d="M1016.22 980.039C1014.93 972.444 1013.36 962.039 1016.45 956.034C1018.46 952.11 1024.55 948.186 1029.06 947.829C1037.1 947.19 1049.37 946.536 1058.45 949.078C1064.59 950.787 1069.83 951.099 1074.74 953.18C1079.11 955.033 1083.57 956.668 1088.11 958.085C1094.29 960.008 1106.57 964.462 1124.96 971.448C1134.96 975.253 1144.08 980.232 1152.12 984.082C1157.44 986.638 1164.33 989.046 1168.34 993.52C1171.5 997.073 1172.31 1002.54 1173.91 1007.14C1175.12 1010.58 1172.49 1015.68 1170.98 1018.95C1167.82 1025.76 1158.03 1034.28 1151.23 1037.74C1143.96 1041.46 1136.75 1045.29 1129.62 1049.23C1125.7 1051.4 1120.26 1054.92 1113.3 1059.8C1103.15 1066.89 1091.84 1073.35 1079.35 1079.18C1076.4 1080.56 1073.85 1080.37 1071.71 1078.61C1064.56 1072.73 1060.3 1063.63 1055.59 1055.95C1053.37 1052.31 1050.15 1047.44 1045.94 1041.34C1034.36 1024.53 1027.7 1007.06 1019.69 990.384C1017.91 986.698 1016.76 983.249 1016.22 980.039Z" fill="#EA1513"/>
<path d="M320.948 1235.62C338.784 1227.27 355.703 1219.58 373.417 1209.13C382.877 1203.56 393.178 1198.48 401.997 1193.01C419.741 1181.99 438.036 1171.38 454.863 1159.09C461.206 1154.48 468.68 1149.99 474.304 1145.96C496.771 1129.93 517.384 1114.02 536.142 1098.25C541.919 1093.39 547.895 1089.2 552.817 1084.72C564.172 1074.42 575.604 1065.5 587.419 1054.58C591.382 1050.9 596.508 1046.31 602.794 1040.8C608.526 1035.78 616.244 1026.06 624.421 1019.1C627.457 1016.51 630.157 1013.93 632.521 1011.36C646.75 995.884 660.75 980.143 675.407 965.071C678.24 962.168 680.95 959.16 683.538 956.049C687.909 950.832 692.143 947.829 697.95 953.359C703.468 958.591 688.857 972.741 685.601 976.665C678.28 985.538 668.407 993.936 660.276 1003.24C653.078 1011.51 644.84 1018.15 637.259 1025.97C633.285 1030.07 629.235 1033.81 625.108 1037.19C614.624 1045.75 605.484 1055.68 594.984 1064.05C580.48 1075.63 567.076 1088.28 552.511 1099.8C544.686 1105.99 532.107 1116.83 521.332 1123.96C513.813 1128.94 507.225 1133.93 501.57 1138.93C500.042 1140.28 497.535 1141.99 494.051 1144.06C477.575 1153.84 463.361 1165.54 446.075 1175.51C440.716 1178.61 434.551 1182.44 427.582 1187C415.248 1195.09 400.301 1202.73 389.312 1209.1C371.537 1219.43 356.528 1226.27 334.581 1236.42C318.991 1243.62 302.653 1249.96 286.544 1256.49C280.049 1259.12 267.959 1263.1 258.697 1267.68C258.391 1267.83 258.052 1267.91 257.707 1267.91C257.363 1267.91 257.024 1267.83 256.72 1267.67C256.415 1267.52 256.154 1267.29 255.958 1267.01C255.762 1266.74 255.638 1266.42 255.595 1266.09L255.503 1265.47C255.45 1265.06 255.536 1264.64 255.749 1264.28C255.962 1263.93 256.288 1263.65 256.68 1263.49C260.883 1261.78 265.009 1259.42 268.8 1257.93C279.519 1253.75 290.192 1249.46 300.819 1245.07C307.467 1242.32 314.208 1238.79 320.948 1235.62Z" fill="#EA1513"/>
<path d="M673.847 1493.37C672.64 1471.48 673.923 1448.11 674.26 1425.31C674.341 1419.28 674.871 1412.54 675.849 1405.11C677.255 1394.54 677.79 1383.6 679.487 1373.48C681.474 1361.58 683.369 1349.68 685.172 1337.77C685.478 1335.76 686.425 1331.42 688.015 1324.73C689.421 1318.81 689.574 1312.97 691.056 1307.16C692.952 1299.85 693.548 1292.18 695.489 1285.3C702.244 1261.32 708.144 1237.14 714.349 1213.03C716.641 1204.15 719.29 1195.37 722.296 1186.69C722.306 1186.63 723.015 1184.23 724.421 1179.5C725.491 1175.9 727.462 1172.38 728.563 1169.21C732.383 1158.01 736.153 1146.81 739.873 1135.59C745.558 1118.45 749.542 1107.32 751.824 1102.22C762.171 1079.03 768.484 1059.55 777.975 1038.66C782.794 1028.03 787.609 1017.4 792.418 1006.77C794.053 1003.14 798.378 999.646 802.444 1002.5C807.121 1005.77 807.228 1009.59 804.752 1014.55C796.539 1031.03 791.536 1041.67 789.743 1046.47C784.776 1059.74 777.272 1073.44 772.717 1085.11C770.048 1091.98 767.434 1098.86 764.877 1105.76C761.423 1115.07 757.765 1124.31 753.903 1133.48C746.46 1151.17 741.187 1166.67 735.547 1183.64C731.359 1196.26 726.27 1209.67 721.868 1222.79C720.625 1226.52 719.02 1232.21 717.054 1239.86C715.205 1247.04 712.255 1254.25 710.788 1261.46C709.106 1269.62 706.386 1277.31 704.46 1285.39C702.392 1294.05 700.787 1300.51 699.646 1304.78C694.113 1325.5 691.973 1341.06 688.504 1359.42C687.511 1364.67 687.679 1372.59 685.554 1379.86C684.8 1382.45 684.342 1385.04 684.179 1387.65C683.476 1398.66 681.29 1410.85 680.556 1420.39C678.998 1440.56 678.921 1458.98 678.478 1477.93C678.096 1494.01 679.517 1508.94 680.832 1524.5C681.749 1535.5 684.653 1544.62 683.139 1555.52C683.123 1555.64 683.082 1555.75 683.019 1555.85C682.956 1555.96 682.872 1556.04 682.773 1556.11C682.675 1556.18 682.563 1556.23 682.444 1556.26C682.326 1556.28 682.203 1556.28 682.085 1556.26C681.912 1556.22 681.769 1556.01 681.657 1555.64C677.821 1543.39 677.133 1530.01 675.299 1517.36C674.198 1509.71 674.305 1501.77 673.847 1493.37Z" fill="#EA1513"/>
<path d="M1137.83 1813.33L1206.02 1689.37L1168.77 1669.04L1131.52 1648.7L1099.13 1707.58L1066.73 1766.46L977.947 1717.99L889.16 1669.52L922.174 1610.99L955.187 1552.45L917.313 1531.77L880.06 1511.44L811.865 1635.39L743.671 1759.34L768.506 1772.9L793.342 1786.46L817.21 1743.07L841.218 1700.17L854.877 1707.63L868.537 1715.08L845.15 1758.32C822.645 1799.23 822.383 1801.91 832.318 1807.33C842.252 1812.75 844.376 1811.09 866.881 1770.19L890.889 1727.28L904.548 1734.74L918.208 1742.2L894.821 1785.44C872.316 1826.34 872.054 1829.02 881.988 1834.44C891.923 1839.87 894.047 1838.21 916.551 1797.3L940.56 1754.4L954.219 1761.85L967.878 1769.31L944.491 1812.55C921.987 1853.46 921.725 1856.13 931.659 1861.56C941.593 1866.98 943.718 1865.32 966.222 1824.42L990.23 1781.51L1003.89 1788.97L1017.55 1796.42L994.162 1839.67C971.658 1880.57 971.396 1883.25 981.33 1888.67C991.264 1894.09 993.389 1892.43 1015.89 1851.53L1039.9 1808.63L1053.56 1816.08L1067.22 1823.54L1043.83 1866.78L1019.97 1910.16L1044.8 1923.72L1069.64 1937.28L1137.83 1813.33Z" fill="#EA1513"/>
<path fill-rule="evenodd" clip-rule="evenodd" d="M1407.39 1236.78C1400 1259.74 1364.36 1370.03 1327.88 1481.08C1291.55 1592.61 1260.76 1683.79 1259.32 1684.21C1257.88 1684.64 1231.6 1671.5 1201.04 1654.41L1145.64 1623.77L1159.82 1597.26L1174 1570.75L1159.59 1549.99L1144.69 1529.37L1176.75 1471.11L1208.8 1412.85L1160.51 1386.89L1112.56 1360.32L1080.51 1418.58L1048.46 1476.83L1022.99 1475.42L997.669 1474.5L982.867 1500.67L968.205 1527.32L911.084 1496.13C879.419 1478.85 854.644 1463.71 855.326 1462.47C862.085 1451.66 1185.72 1071.05 1188.61 1070.21C1190.53 1069.64 1203.63 1075.18 1216.81 1082.78L1241.16 1096.48L1325.27 1085.58L1362.72 1162.43L1391.9 1178.36L1420.6 1194.43L1407.39 1236.78Z" fill="#EA1513"/>
<path d="M1105.39 1652.17L1149.03 1572.84L1133.8 1552.84L1119.05 1532.69L1135.19 1500.41C1144.74 1483.05 1157.28 1458.06 1163.48 1445.33L1174.65 1422.82L1147.19 1407.43L1119.73 1392.04L1089.59 1446.1L1059.44 1500.16L1034.46 1498.61L1009.34 1496.58L964.668 1577.77L920.342 1658.34L988.639 1695.62C1025.89 1715.95 1057.9 1732.62 1059.34 1732.2C1060.78 1731.78 1081.52 1695.55 1105.39 1652.17Z" fill="#EA1513"/>
<path d="M265.748 1157.11L343.346 1091.35L323.619 1068.08L303.893 1044.8L267.034 1076.03L230.175 1107.26L183.161 1051.78L136.146 996.298L173.334 965.452L210.522 934.607L190.467 910.94L170.741 887.66L93.1428 953.414L15.5448 1019.17L28.6956 1034.69L41.8464 1050.21L69.0057 1027.19L96.1355 1004.54L103.368 1013.07L110.601 1021.61L83.8005 1044.65C58.1931 1066.35 57.3283 1068.09 62.5886 1074.29C67.849 1080.5 69.7001 1079.93 95.3075 1058.23L122.437 1035.58L129.67 1044.11L136.903 1052.65L110.102 1075.69C84.4948 1097.39 83.63 1099.12 88.8903 1105.33C94.1507 1111.54 96.0018 1110.97 121.609 1089.27L148.739 1066.62L155.972 1075.15L163.205 1083.69L136.404 1106.73C110.797 1128.43 109.932 1130.16 115.192 1136.37C120.452 1142.58 122.304 1142.01 147.911 1120.31L175.041 1097.66L182.274 1106.19L189.506 1114.73L162.706 1137.77C137.098 1159.47 136.233 1161.2 141.494 1167.41C146.754 1173.62 148.605 1173.05 174.213 1151.35L201.342 1128.7L208.575 1137.23L215.808 1145.77L189.007 1168.81L161.848 1191.82L174.999 1207.34L188.15 1222.86L265.748 1157.11Z" fill="#EA1513"/>
<path fill-rule="evenodd" clip-rule="evenodd" d="M594.766 838.982C583.905 852.517 531.631 917.477 478.61 982.736C425.559 1048.35 381.459 1101.72 380.384 1101.63C379.309 1101.54 365.083 1085.93 349.003 1066.56L319.772 1031.68L336.097 1017.51L352.422 1003.34L348.109 985.666L343.438 967.96L379.909 937.056L416.38 906.151L390.706 876.246L365.421 846.013L328.95 876.917L292.478 907.822L275.78 900.308L259.051 893.153L242.397 906.931L225.714 921.069L195.467 885.374C178.699 865.586 165.996 849.021 166.772 848.363C174.084 842.833 488.9 670.389 491.051 670.566C492.484 670.685 499.836 677.787 506.71 686.293L519.503 701.783L578.664 716.143L583.971 777.471L599.424 795.706L614.517 813.912L594.766 838.982Z" fill="#EA1513"/>
<path d="M285.494 1040.39L335.157 998.306L330.098 980.93L325.397 963.582L344.527 946.039C355.391 936.833 370.223 923.265 377.654 916.302L390.935 904.048L376.498 886.618L362.062 869.188L327.949 897.762L293.835 926.335L277.495 918.851L261.184 911.009L210.357 954.078L159.918 996.818L196.083 1039.5C215.809 1062.78 232.965 1082.24 234.04 1082.32C235.115 1082.41 258.335 1063.4 285.494 1040.39Z" fill="#EA1513"/>
</svg>
