<?xml version="1.0" encoding="UTF-8"?><svg id="Calque_1" xmlns="http://www.w3.org/2000/svg" viewBox="0 0 369.15 115.53"><defs><style>.cls-1{fill:#91130b;stroke-width:0px;}</style></defs><polygon class="cls-1" points="157.08 66.89 151.32 66.89 151.32 38.44 157.08 38.44 157.08 53.29 162.6 47 169.86 47 162.52 55.2 170.19 66.89 163.17 66.89 158.42 59.34 157.08 60.8 157.08 66.89"/><path class="cls-1" d="M177.82,60.68c0,.51.23.94.69,1.28.46.34,1.06.51,1.79.51,1.3,0,2.49-.41,3.57-1.22v-2.27c-1.03-.24-1.92-.36-2.68-.36-1.06,0-1.88.18-2.48.54-.6.37-.89.88-.89,1.53M178.92,67.34c-2.08,0-3.76-.59-5.01-1.75-1.26-1.16-1.89-2.68-1.89-4.55,0-2.06.76-3.64,2.27-4.75,1.52-1.11,3.38-1.66,5.6-1.66,1.3,0,2.62.19,3.98.57v-.33c0-.97-.3-1.76-.89-2.35-.59-.59-1.41-.89-2.43-.89-1.84,0-3.26.77-4.26,2.31l-3.65-3.49c2.19-2.62,4.97-3.93,8.32-3.93,2.49,0,4.57.71,6.25,2.15,1.65,1.41,2.48,3.34,2.48,5.8v12.42h-5.73v-1.3c-1.33,1.16-3,1.75-5.03,1.75"/><path class="cls-1" d="M196.21,66.28c-.65-.68-.97-1.5-.97-2.48s.32-1.8.97-2.48c.68-.68,1.5-1.01,2.48-1.01s1.8.34,2.48,1.01c.7.68,1.06,1.5,1.06,2.48s-.35,1.8-1.06,2.48c-.68.68-1.5,1.01-2.48,1.01s-1.8-.34-2.48-1.01M196.21,52.68c-.65-.68-.97-1.5-.97-2.48s.32-1.8.97-2.48c.68-.68,1.5-1.01,2.48-1.01s1.8.34,2.48,1.01c.7.68,1.06,1.5,1.06,2.48s-.35,1.8-1.06,2.48c-.68.68-1.5,1.01-2.48,1.01s-1.8-.34-2.48-1.01"/><path class="cls-1" d="M216.5,59.95l-2.64-.65c-4.33-1.08-6.49-3.25-6.49-6.49,0-1.9.74-3.41,2.23-4.54,1.49-1.16,3.32-1.74,5.48-1.74,3,0,5.67,1.04,8,3.13l-3.53,3.73c-1.6-1.3-3.17-1.95-4.71-1.95-.57,0-1.02.12-1.36.34-.34.23-.51.51-.51.83,0,.49.47.84,1.42,1.06l2.96.69c4.36,1.03,6.54,3.22,6.54,6.58,0,1.9-.76,3.44-2.27,4.62-1.52,1.19-3.53,1.79-6.05,1.79-1.79,0-3.47-.37-5.05-1.1-1.58-.73-2.81-1.65-3.67-2.76l3.53-3.61c1.81,1.76,3.71,2.64,5.68,2.64.6,0,1.12-.12,1.56-.37.45-.24.67-.55.67-.93,0-.54-.6-.96-1.79-1.26"/><path class="cls-1" d="M236.35,51.59c-1,0-1.84.27-2.5.81-.66.54-1.09,1.26-1.28,2.15h7.14c-.05-.84-.39-1.54-1.01-2.11-.62-.57-1.41-.85-2.35-.85M245.8,56.7l-.04,1.71h-13.48c.16,1.08.64,1.96,1.44,2.64.8.68,1.81,1.01,3.02,1.01,2.03,0,3.65-.77,4.87-2.31l3.81,3.57c-2.14,2.68-4.98,4.02-8.52,4.02-3,0-5.51-.93-7.51-2.8-1.98-1.9-2.96-4.38-2.96-7.47s.91-5.57,2.72-7.55c1.84-2,4.19-3,7.06-3,3.03,0,5.39,1.01,7.06,3.04,1.68,2.06,2.52,4.44,2.52,7.14"/><path class="cls-1" d="M255.54,56.95v9.95h-5.76v-19.89h5.68v1.38c1.27-1.25,2.84-1.86,4.71-1.86,2.49,0,4.46.78,5.93,2.33,1.46,1.55,2.19,3.71,2.19,6.47v11.57h-5.8v-11.12c0-1.19-.28-2.13-.83-2.84-.55-.7-1.37-1.06-2.45-1.06-2.44,0-3.65,1.7-3.65,5.07"/><rect class="cls-1" x="286.11" y="38.44" width="3" height="28.45"/><path class="cls-1" d="M299.34,66.89h-3v-19.89h3v19.89ZM296.21,41.85c-.43-.46-.65-1-.65-1.62s.22-1.15.65-1.58c.46-.43,1-.65,1.62-.65s1.15.22,1.58.65c.46.43.69.96.69,1.58s-.23,1.16-.69,1.62c-.43.43-.96.65-1.58.65s-1.16-.22-1.62-.65"/><path class="cls-1" d="M306.6,47h2.92v2.43c.68-.87,1.59-1.57,2.74-2.11,1.15-.54,2.33-.81,3.55-.81,2.54,0,4.5.76,5.86,2.29,1.37,1.53,2.05,3.7,2.05,6.51v11.57h-3.04v-11.81c0-1.84-.45-3.26-1.34-4.27-.89-1-2.14-1.5-3.73-1.5-1.92,0-3.4.69-4.44,2.05-1.04,1.37-1.56,3.26-1.56,5.66v9.86h-3v-19.89Z"/><path class="cls-1" d="M346.46,66.89h-2.88v-2.52c-1.54,1.98-3.64,2.97-6.29,2.97-4.98,0-7.47-2.93-7.47-8.77v-11.57h3v11.69c0,3.87,1.62,5.8,4.87,5.8,1.9,0,3.33-.65,4.3-1.96.97-1.31,1.46-3.2,1.46-5.66v-9.86h3v19.89Z"/><polygon class="cls-1" points="365.05 47 360.1 54.43 355.19 47 351.57 47 358.23 56.67 351.09 66.89 354.7 66.89 360.1 58.86 365.54 66.89 369.15 66.89 362 56.67 368.66 47 365.05 47"/><rect class="cls-1" x="150.84" y="76.49" width=".91" height="5.34"/><polygon class="cls-1" points="154.72 78.07 154.72 81.83 153.81 81.83 153.81 76.49 154.72 76.49 157.37 80.27 157.37 76.49 158.28 76.49 158.28 81.83 157.37 81.83 154.72 78.07"/><polygon class="cls-1" points="160.34 81.83 160.34 76.49 163.84 76.49 163.84 77.31 161.25 77.31 161.25 78.69 163.66 78.69 163.66 79.52 161.25 79.52 161.25 81.83 160.34 81.83"/><path class="cls-1" d="M166.42,77.31v1.87h1.01c.76,0,1.24-.25,1.24-.94,0-.65-.47-.93-1.24-.93h-1.01ZM167.52,80.01h-1.1v1.82h-.91v-5.34h2.03c1.24,0,2.03.63,2.03,1.74,0,.79-.4,1.36-1.09,1.62l1.23,1.97h-1.07l-1.12-1.82Z"/><path class="cls-1" d="M172.55,79.86h1.62l-.81-2.13-.81,2.13ZM175.9,81.83h-.95l-.45-1.13h-2.28l-.44,1.13h-.96l2.09-5.34h.91l2.08,5.34Z"/><path class="cls-1" d="M178.78,79.52c-1-.18-1.6-.71-1.6-1.58,0-.94.87-1.52,1.88-1.52.94,0,1.55.4,1.97.85l-.63.67c-.3-.36-.72-.7-1.38-.7s-.93.36-.93.68c0,.37.24.62.88.72l.53.09c1.17.19,1.71.79,1.71,1.65s-.75,1.55-2.04,1.55c-.99,0-1.68-.46-2.12-1.02l.62-.62c.33.43.77.82,1.62.82.68,0,1.01-.31,1.01-.71,0-.35-.22-.65-.88-.76l-.65-.11Z"/><polygon class="cls-1" points="186.79 76.49 186.79 77.31 185.16 77.31 185.16 81.83 184.26 81.83 184.26 77.31 182.67 77.31 182.67 76.49 186.79 76.49"/><path class="cls-1" d="M189.33,77.31v1.87h1.01c.76,0,1.24-.25,1.24-.94,0-.65-.47-.93-1.24-.93h-1.01ZM190.43,80.01h-1.1v1.82h-.91v-5.34h2.03c1.24,0,2.03.63,2.03,1.74,0,.79-.4,1.36-1.09,1.62l1.23,1.97h-1.07l-1.12-1.82Z"/><path class="cls-1" d="M197.48,76.49h.91v2.97c0,1.63-.87,2.45-2.15,2.45s-2.16-.82-2.16-2.45v-2.97h.91v2.98c0,.98.34,1.62,1.24,1.62s1.24-.64,1.24-1.63v-2.97Z"/><path class="cls-1" d="M204.78,80.91c-.47.59-1.12,1.01-2.13,1.01-1.6,0-2.79-1.11-2.79-2.74s1.19-2.76,2.76-2.76c.94,0,1.63.4,2.08,1.01l-.59.61c-.31-.45-.78-.78-1.48-.78-1.05,0-1.84.81-1.84,1.93s.79,1.91,1.87,1.91c.68,0,1.17-.31,1.54-.8l.57.62Z"/><polygon class="cls-1" points="210.01 76.49 210.01 77.31 208.38 77.31 208.38 81.83 207.47 81.83 207.47 77.31 205.89 77.31 205.89 76.49 210.01 76.49"/><path class="cls-1" d="M214.94,76.49h.91v2.97c0,1.63-.87,2.45-2.15,2.45s-2.16-.82-2.16-2.45v-2.97h.91v2.98c0,.98.34,1.62,1.24,1.62s1.24-.64,1.24-1.63v-2.97Z"/><path class="cls-1" d="M218.65,77.31v1.87h1.01c.76,0,1.24-.25,1.24-.94,0-.65-.47-.93-1.24-.93h-1.01ZM219.75,80.01h-1.1v1.82h-.91v-5.34h2.03c1.24,0,2.03.63,2.03,1.74,0,.79-.4,1.36-1.09,1.62l1.23,1.97h-1.07l-1.12-1.82Z"/><polygon class="cls-1" points="223.57 76.49 227.33 76.49 227.33 77.31 224.48 77.31 224.48 78.69 227.2 78.69 227.2 79.52 224.48 79.52 224.48 81.01 227.33 81.01 227.33 81.83 223.57 81.83 223.57 76.49"/><polygon class="cls-1" points="237.25 76.49 238.23 76.49 236.84 81.83 235.83 81.83 234.84 77.97 233.84 81.83 232.84 81.83 231.45 76.49 232.41 76.49 233.34 80.39 234.32 76.49 235.36 76.49 236.34 80.39 237.25 76.49"/><path class="cls-1" d="M242.02,81.08c1.03,0,1.78-.83,1.78-1.93s-.75-1.91-1.78-1.91-1.8.84-1.8,1.91.75,1.93,1.8,1.93M241.99,76.41c1.53,0,2.72,1.2,2.72,2.75s-1.19,2.76-2.72,2.76-2.7-1.19-2.7-2.76,1.17-2.75,2.7-2.75"/><path class="cls-1" d="M247.34,77.31v1.87h1.01c.76,0,1.24-.25,1.24-.94,0-.65-.47-.93-1.24-.93h-1.01ZM248.44,80.01h-1.1v1.82h-.91v-5.34h2.03c1.24,0,2.03.63,2.03,1.74,0,.79-.4,1.36-1.09,1.62l1.23,1.97h-1.07l-1.12-1.82Z"/><polygon class="cls-1" points="252.26 76.49 253.17 76.49 253.17 78.97 255.16 76.49 256.29 76.49 254.49 78.75 256.47 81.83 255.38 81.83 253.86 79.51 253.17 80.36 253.17 81.83 252.26 81.83 252.26 76.49"/><polygon class="cls-1" points="258.09 76.49 261.85 76.49 261.85 77.31 259 77.31 259 78.69 261.72 78.69 261.72 79.52 259 79.52 259 81.01 261.85 81.01 261.85 81.83 258.09 81.83 258.09 76.49"/><path class="cls-1" d="M264.73,77.31v1.87h1.01c.76,0,1.24-.25,1.24-.94,0-.65-.47-.93-1.24-.93h-1.01ZM265.84,80.01h-1.1v1.82h-.91v-5.34h2.03c1.24,0,2.03.63,2.03,1.74,0,.79-.4,1.36-1.09,1.62l1.23,1.97h-1.07l-1.12-1.82Z"/><polygon class="cls-1" points="103.05 27.74 107.54 27.01 117.52 29.44 123.65 26.41 115.21 21.59 115.73 16.62 111.7 13.11 106.77 13.58 103.2 6.98 97.93 9.11 97.46 13.51 93.17 14.85 101.68 18.21 103.05 27.74"/><polygon class="cls-1" points="51.26 72.4 52.44 65.36 50.09 64.81 46.51 68.61 47.73 72.4 51.26 72.4"/><polygon class="cls-1" points="36.66 61.67 39.4 62.69 40.99 60.17 41.96 58.79 41.29 57.34 37.21 59.16 36.66 61.67"/><polygon class="cls-1" points="55.83 64.87 64.59 63.46 85.06 42.71 84.64 30.08 76.98 24.44 69.07 25.8 45.73 41.64 43.13 52.92 43.97 59.21 39.27 66.79 32.97 72.46 25.06 75.86 25.39 76.05 33.24 73.6 37.92 70.42 38.28 70.39 36.17 76.35 36.73 84.87 37.14 85 37.37 76.52 40.48 70.17 51.09 61.03 55.83 64.87"/><polygon class="cls-1" points="78.74 21.88 88.01 28.5 88.48 40.07 93.81 34.73 93.81 24.42 83.33 19.22 79.42 19.84 71.94 22.86 78.74 21.88"/><polygon class="cls-1" points="95.9 22.14 96.92 31.62 99.88 28.66 99.14 20.32 90.09 16.08 87.31 16.31 83.76 17.5 86.89 17.5 95.9 22.14"/><path class="cls-1" d="M37.69,52.21c-2.14-.11-2.29-.1-4.11-.16h0c10.19-12.78,20.21-25.69,30.01-38.77C66.9,8.88,70.18,4.46,73.4,0c-6.99,8.5-13.79,17.16-20.54,25.85-6.87,8.82-13.62,17.74-20.31,26.7,2.49-.09,2.64-.22,5.14-.34"/><polygon class="cls-1" points="47.65 37.96 54.74 33.6 50.31 33.6 46.89 38 47.65 37.96"/><path class="cls-1" d="M75.54,62.8c2.36-1.29,4.68-2.54,6.98-3.78l-.61-7.72-6.58,7.07.21,4.44Z"/><path class="cls-1" d="M55.88,75.84h0c.17-2.52.06-2.72.23-5.51-.41,3.07-.39,3.26-.78,6.33l.4-.21c13.05-6.8,26.05-13.68,38.99-20.69,12.94-7,14.02-7.8,26.81-15.08-13.12,6.66-14.29,7.3-27.26,14.24-12.85,6.86-25.64,13.85-38.38,20.91"/><polygon class="cls-1" points="66.67 92.64 63.99 91.91 57.33 98.86 63.32 104.61 69.98 97.66 69.15 95.01 73.45 90.52 70.97 88.15 66.67 92.64"/><polygon class="cls-1" points="86.49 85.92 83.47 64.17 74.83 68.77 70.64 78.81 56.23 89.16 61.1 93.83 63.44 91.39 63.75 91.06 64.19 91.18 66.43 91.78 70.43 87.62 70.95 87.07 71.5 87.6 73.98 89.97 74.53 90.5 74 91.05 70.01 95.21 70.71 97.43 70.85 97.86 70.53 98.18 68.19 100.62 73.42 105.64 86.49 86.31 86.34 86.09 86.49 85.92"/><polygon class="cls-1" points="46.89 102.12 49.01 104.16 52.53 100.49 53.7 101.61 50.18 105.28 51.15 106.21 54.67 102.54 55.84 103.67 52.33 107.33 53.29 108.26 56.81 104.59 57.98 105.72 54.47 109.39 55.43 110.31 58.95 106.64 60.13 107.77 56.61 111.44 57.58 112.36 61.09 108.7 62.27 109.82 58.75 113.49 60.87 115.53 71.26 104.69 67.85 101.42 67.63 101.21 63.87 105.13 63.35 105.68 62.8 105.16 56.8 99.41 56.26 98.88 56.78 98.33 60.54 94.42 57.27 91.29 46.89 102.12"/><polygon class="cls-1" points="0 57.19 1.51 58.63 3.99 56.02 4.83 56.82 2.34 59.42 3.03 60.08 5.51 57.47 6.35 58.27 3.86 60.87 4.55 61.53 7.03 58.92 7.87 59.72 5.38 62.32 6.07 62.98 8.55 60.37 9.39 61.17 6.9 63.77 7.59 64.43 10.07 61.82 10.91 62.62 8.42 65.22 9.93 66.66 17.27 58.97 14.98 56.78 12.04 59.87 11.51 60.43 10.96 59.9 6.7 55.84 6.15 55.32 6.68 54.77 9.63 51.67 7.34 49.49 0 57.19"/><polygon class="cls-1" points="37.27 32.92 21.77 36.94 21.77 36.94 21.77 36.94 21.79 37.02 6.83 47.82 10.22 51.05 11.38 49.83 11.7 49.5 12.13 49.62 13.6 50.01 16.33 47.15 16.85 46.6 17.4 47.12 19.16 48.8 19.71 49.33 19.19 49.88 16.46 52.74 16.92 54.18 17.05 54.61 16.74 54.94 15.57 56.16 18.96 59.4 24.92 50.26 38.53 37.84 41.66 37.58 45.22 32.92 37.27 32.92"/><polygon class="cls-1" points="13.84 50.86 11.94 50.36 7.23 55.29 11.49 59.35 16.19 54.41 15.6 52.54 18.64 49.35 16.88 47.67 13.84 50.86"/></svg>