<?xml version="1.0" encoding="UTF-8" standalone="no"?>
<svg
   width="286.87079"
   height="59.956539"
   viewBox="0 0 4278.5098 893.13037"
   fill="none"
   version="1.1"
   id="svg799"
   sodipodi:docname="Group 4.svg"
   xmlns:inkscape="http://www.inkscape.org/namespaces/inkscape"
   xmlns:sodipodi="http://sodipodi.sourceforge.net/DTD/sodipodi-0.dtd"
   xmlns:xlink="http://www.w3.org/1999/xlink"
   xmlns="http://www.w3.org/2000/svg"
   xmlns:svg="http://www.w3.org/2000/svg">
  <defs
     id="defs803" />
  <sodipodi:namedview
     id="namedview801"
     pagecolor="#ffffff"
     bordercolor="#000000"
     borderopacity="0.25"
     inkscape:showpageshadow="2"
     inkscape:pageopacity="0.0"
     inkscape:pagecheckerboard="0"
     inkscape:deskcolor="#d1d1d1"
     showgrid="false" />
  <g
     id="g979"
     clip-path="none"
     transform="translate(-2301.28,-603.91895)">
    <g
       inkscape:label="Clip"
       id="g977">
      <path
         d="m 2690.74,784.968 -267.71,288.362 3.56,-26.35 1.42,69.07 v 65.5 H 2301.28 V 945.88 604.12 h 126.73 v 218.584 l -5.69,145.96 -14.95,-17.8 136.7,-165.896 z m -232.11,230.692 84.02,-89.004 157.35,254.894 h -143.11 z m 386.32,171.59 c -26.11,0 -48.89,-5.34 -68.35,-16.02 -19.23,-10.92 -34.18,-25.87 -44.86,-44.86 -10.44,-19.22 -15.66,-41.18 -15.66,-65.86 0,-23.26 6.29,-43.43 18.87,-60.518 12.81,-17.326 30.26,-30.616 52.33,-39.872 15.9,-6.883 33.22,-11.986 51.97,-15.308 18.75,-3.56 37.5,-5.934 56.25,-7.12 18.99,-1.187 36.79,-1.78 53.4,-1.78 l 18.51,22.784 -18.51,39.16 c -8.3,0.237 -16.97,0.949 -25.99,2.136 -8.78,0.948 -17.08,2.378 -24.92,4.268 -7.83,1.67 -14.12,3.56 -18.86,5.7 -7.36,3.09 -14.36,7.71 -21.01,13.88 -6.41,5.94 -9.61,16.02 -9.61,30.26 0,18.75 5.1,32.4 15.31,40.94 10.44,8.31 22.19,12.46 35.24,12.46 6.88,0 13.65,-0.83 20.29,-2.49 6.89,-1.66 12.94,-3.68 18.16,-6.05 5.22,-2.61 9.02,-5.22 11.39,-7.83 l 20.65,26.34 -14.24,30.62 c -10.92,9.49 -25.39,18.39 -43.43,26.7 -17.8,8.3 -40.11,12.46 -66.93,12.46 z m 232.11,-5.7 h -121.75 v -59.09 h -6.41 V 912.416 c 0,-17.563 -4.86,-29.074 -14.59,-34.532 -9.5,-5.459 -23.14,-8.188 -40.94,-8.188 -15.19,0 -31.09,1.186 -47.71,3.56 -16.37,2.373 -32.28,5.696 -47.7,9.968 -15.43,4.034 -28.96,8.781 -40.59,14.24 l -26.34,-75.472 c 9.73,-5.934 23.73,-12.223 42.01,-18.868 18.51,-6.883 39.28,-12.698 62.3,-17.444 23.02,-4.747 46.4,-7.12 70.13,-7.12 41.53,0 74.88,4.865 100.04,14.596 25.15,9.73 43.31,25.513 54.46,47.348 11.4,21.834 17.09,51.026 17.09,87.576 z m 169.59,7.83 c -21.36,0 -38.68,-7 -51.97,-21 -13.29,-14.24 -19.94,-31.68 -19.94,-52.33 0,-14 3.32,-26.94 9.97,-38.81 6.88,-12.1 16.14,-21.83 27.77,-29.19 11.86,-7.36 25.15,-11.03 39.87,-11.03 21.83,0 39.16,7 51.97,21 12.82,13.77 19.23,30.97 19.23,51.62 0,14 -3.44,27.06 -10.33,39.16 -6.64,12.1 -15.78,21.95 -27.41,29.55 -11.63,7.36 -24.68,11.03 -39.16,11.03 z m 0,-255.604 c -21.36,0 -38.68,-7.002 -51.97,-21.004 -13.29,-14.24 -19.94,-31.684 -19.94,-52.332 0,-14.003 3.32,-26.938 9.97,-38.804 6.88,-12.104 16.14,-21.835 27.77,-29.192 11.86,-7.358 25.15,-11.036 39.87,-11.036 21.83,0 39.16,7.001 51.97,21.004 12.82,13.765 19.23,30.972 19.23,51.62 0,14.002 -3.44,27.056 -10.33,39.16 -6.64,12.104 -15.78,21.953 -27.41,29.548 -11.63,7.357 -24.68,11.036 -39.16,11.036 z m 156.75,221.434 12.81,-89 c 3.8,3.32 11.63,7.83 23.5,13.53 12.1,5.45 26.34,10.44 42.72,14.95 16.38,4.27 33.23,6.41 50.55,6.41 20.65,0.23 35.36,-1.9 44.15,-6.41 9.01,-4.75 13.52,-12.11 13.52,-22.07 0,-6.89 -3.2,-12.82 -9.61,-17.8 -6.41,-5.23 -15.07,-10.09 -25.99,-14.6 -10.91,-4.51 -23.02,-9.14 -36.31,-13.88 -28.95,-10.45 -51.97,-21.96 -69.06,-34.536 -16.85,-12.579 -28.96,-26.7 -36.31,-42.364 -7.36,-15.902 -10.92,-33.939 -10.68,-54.112 0,-25.632 7.35,-46.992 22.07,-64.08 14.95,-17.088 34.89,-29.904 59.81,-38.448 24.92,-8.544 52.45,-12.816 82.59,-12.816 32.51,0 59.69,2.848 81.52,8.544 21.84,5.458 37.14,10.68 45.93,15.664 l -11.4,90.424 c -4.74,-4.272 -12.22,-8.782 -22.42,-13.528 -10.21,-4.747 -21.72,-8.782 -34.54,-12.104 -12.81,-3.323 -25.63,-4.984 -38.44,-4.984 -22.08,0 -37.74,2.254 -47,6.764 -9.02,4.509 -13.52,11.273 -13.52,20.292 0,10.68 4.86,18.512 14.59,23.496 9.73,4.984 25.04,11.392 45.93,19.224 31.32,11.392 56.48,22.902 75.47,34.532 19.22,11.629 33.11,24.801 41.65,39.512 8.78,14.72 13.17,32.52 13.17,53.4 0,41.3 -15.31,72.63 -45.92,93.99 -30.38,21.36 -70.85,32.04 -121.4,32.04 -21.83,0 -42.6,-1.78 -62.3,-5.34 -19.7,-3.32 -37.02,-7.48 -51.97,-12.46 -14.72,-4.99 -25.76,-9.73 -33.11,-14.24 z m 570.06,32.04 c -64.08,0 -112.97,-18.16 -146.67,-54.47 -33.7,-36.55 -50.55,-86.98 -50.55,-151.3 0,-38.448 7.83,-72.862 23.49,-103.24 15.67,-30.379 38.21,-54.35 67.64,-71.912 29.67,-17.563 65.51,-26.344 107.51,-26.344 21.13,0 41.54,2.492 61.24,7.476 19.69,4.746 37.38,13.172 53.04,25.276 15.66,11.866 28.24,28.242 37.74,49.128 9.49,20.885 14.35,47.229 14.59,79.032 0,14.24 -0.47,27.768 -1.42,40.584 -0.71,12.816 -1.66,23.5 -2.85,32.04 h -294.77 l 7.12,-64.08 h 172.31 c 1.18,-19.224 0.23,-35.244 -2.85,-48.06 -2.85,-13.054 -8.19,-22.784 -16.02,-29.192 -7.6,-6.408 -17.92,-9.612 -30.97,-9.612 -14.96,0 -27.65,4.153 -38.1,12.46 -10.2,8.069 -17.92,22.072 -23.14,42.008 -5.22,19.936 -7.59,47.585 -7.12,82.948 0.48,23.018 4.63,41.648 12.46,55.888 8.07,14.01 19.46,24.21 34.18,30.62 14.71,6.41 32.4,9.61 53.04,9.61 12.82,0 26.23,-0.95 40.23,-2.85 14,-1.89 26.94,-4.39 38.81,-7.47 12.1,-3.09 21.36,-6.29 27.76,-9.61 l 19.94,68.35 c -8.78,7.12 -21,14 -36.67,20.65 -15.43,6.4 -33.46,11.74 -54.11,16.02 -20.41,4.03 -42.36,6.05 -65.86,6.05 z m 255.4,-5.7 V 784.968 h 117.48 l 2.84,46.28 c 8.31,-8.307 19.23,-16.376 32.76,-24.208 13.52,-7.832 28.59,-14.359 45.21,-19.58 16.61,-5.222 33.82,-7.951 51.62,-8.188 40.34,-0.712 70.6,10.324 90.78,33.108 20.17,22.546 30.26,62.3 30.26,119.26 v 249.91 H 4470.94 V 955.136 c 0,-28.955 -3.68,-48.772 -11.04,-59.452 -7.36,-10.918 -20.53,-16.02 -39.52,-15.308 -6.17,0 -13.05,0.949 -20.64,2.848 -7.6,1.898 -15.19,4.746 -22.79,8.544 -7.36,3.797 -14,8.544 -19.93,14.24 v 275.542 z m 761.55,0 V 602.696 h 58.39 v 578.854 z m 203.25,0 V 785.68 h 57.67 v 395.87 z m 25.63,-482.734 c -10.2,0 -19.1,-3.442 -26.7,-10.324 -7.36,-6.883 -11.03,-16.495 -11.03,-28.836 0,-8.782 2.13,-16.495 6.4,-23.14 4.28,-6.883 9.62,-12.223 16.02,-16.02 6.65,-3.798 13.41,-5.696 20.3,-5.696 12.81,0 22.31,3.797 28.48,11.392 6.17,7.357 9.25,16.613 9.25,27.768 0,13.528 -4.39,24.445 -13.17,32.752 -8.54,8.069 -18.39,12.104 -29.55,12.104 z m 177.53,482.734 V 785.68 h 51.98 v 50.552 c 9.49,-7.12 21.95,-14.952 37.38,-23.496 15.66,-8.782 32.87,-16.376 51.62,-22.784 18.75,-6.646 37.74,-10.206 56.96,-10.68 43.2,-0.712 73.81,10.798 91.85,34.532 18.04,23.496 27.05,64.436 27.05,122.82 v 244.926 h -58.38 V 935.912 c 0,-39.16 -5.58,-67.284 -16.73,-84.372 -11.16,-17.326 -33.82,-25.276 -68,-23.852 -12.34,0.237 -25.51,2.729 -39.51,7.476 -14.01,4.746 -27.65,10.798 -40.94,18.156 -13.29,7.357 -24.92,14.952 -34.89,22.784 v 305.446 z m 560.22,5.7 c -25.4,0 -45.81,-4.04 -61.24,-12.11 -15.42,-8.3 -27.05,-19.93 -34.88,-34.88 -7.84,-15.19 -13.18,-33.11 -16.02,-53.76 -2.62,-20.65 -3.92,-43.55 -3.92,-68.71 V 784.968 h 57.67 v 234.962 c 0,33.22 2.49,58.38 7.48,75.47 5.22,17.09 13.76,28.6 25.63,34.53 11.87,5.94 28.12,8.9 48.77,8.9 13.29,0 26.94,-1.9 40.94,-5.69 14,-3.8 26.94,-8.55 38.81,-14.24 12.1,-5.7 21.83,-11.4 29.19,-17.09 V 784.968 h 58.38 v 400.852 h -22.78 c -9.26,0 -16.5,-1.42 -21.72,-4.27 -4.98,-2.61 -7.47,-9.02 -7.47,-19.22 v -32.04 l 0.71,9.97 c -12.34,8.78 -26.35,16.73 -42.01,23.85 -15.66,7.12 -31.92,12.81 -48.77,17.09 -16.85,4.03 -33.11,6.05 -48.77,6.05 z m 276.01,-5.7 147.38,-209.326 0.71,18.512 -148.09,-205.768 h 65.5 l 94.7,138.84 24.2,39.16 h -19.93 l 21.36,-41.296 94.69,-136.704 h 64.8 l -148.81,205.056 v -19.936 l 150.23,211.462 h -66.93 l -96.12,-141.69 -26.34,-42.004 23.49,0.712 -23.49,44.142 -91.14,138.84 z m -3909.76,314 v -124.82 h 72.41 v 15.12 h -52.59 v 39.48 h 39.31 v 15.12 h -39.31 v 55.1 z m 162.92,1.35 c -11.59,0.22 -21.61,-2.41 -30.07,-7.9 -8.45,-5.54 -14.92,-13.22 -19.4,-23.02 -4.48,-9.85 -6.58,-21.11 -6.3,-33.76 0.28,-13.95 3.02,-25.57 8.23,-34.86 5.26,-9.3 12.24,-16.27 20.92,-20.92 8.73,-4.65 18.45,-7 29.14,-7.06 11.09,-0.05 20.75,2.55 28.98,7.82 8.24,5.2 14.56,12.6 18.99,22.17 4.48,9.58 6.58,20.81 6.3,33.69 -0.28,13.94 -2.91,25.62 -7.9,35.02 -4.98,9.36 -11.7,16.44 -20.16,21.26 -8.45,4.81 -18.03,7.33 -28.73,7.56 z m 0.51,-15.12 c 11.09,0 19.91,-4.18 26.46,-12.52 6.55,-8.4 9.83,-20.75 9.83,-37.04 0,-8.63 -1.32,-16.55 -3.95,-23.78 -2.58,-7.28 -6.47,-13.1 -11.68,-17.47 -5.15,-4.42 -11.59,-6.63 -19.32,-6.63 -6.77,0 -13.02,1.73 -18.73,5.2 -5.71,3.48 -10.3,8.82 -13.78,16.05 -3.41,7.22 -5.12,16.49 -5.12,27.8 0,8.57 1.34,16.55 4.03,23.94 2.75,7.34 6.81,13.25 12.18,17.73 5.38,4.48 12.07,6.72 20.08,6.72 z m 127.29,13.77 h -19.83 v -124.82 c 1.01,0 1.99,0 2.94,0 0.95,0 1.91,0 2.86,0 0.95,0 1.93,0 2.94,0 3.97,0 8.68,-0.23 14.11,-0.67 5.43,-0.45 11.42,-0.68 17.98,-0.68 6.27,0 12.01,0.68 17.22,2.02 5.2,1.29 9.71,3.36 13.52,6.22 3.86,2.8 6.83,6.46 8.9,11 2.13,4.48 3.2,9.94 3.2,16.38 0,7.5 -1.26,13.83 -3.78,18.98 -2.52,5.16 -6.14,9.22 -10.84,12.18 -4.65,2.97 -10.19,4.96 -16.63,5.97 -2.3,0.33 -4.68,0.61 -7.14,0.84 -2.41,0.17 -5.57,0.31 -9.49,0.42 -3.92,0.05 -9.24,0.08 -15.96,0.08 z m 0,-66.19 c 1.17,0.17 2.96,0.31 5.37,0.42 2.47,0.06 4.96,0.08 7.48,0.08 2.52,0 4.51,0 5.96,0 8.07,0 14.28,-1.96 18.65,-5.88 4.37,-3.97 6.55,-10.02 6.55,-18.14 0,-4.82 -0.81,-8.85 -2.43,-12.1 -1.63,-3.3 -4.34,-5.76 -8.15,-7.39 -3.75,-1.68 -8.85,-2.52 -15.29,-2.52 -3.25,0 -6.47,0.14 -9.66,0.42 -3.14,0.23 -5.96,0.59 -8.48,1.09 z m 50.4,66.19 c -0.73,-1.12 -1.35,-2.27 -1.85,-3.44 -0.51,-1.18 -1.4,-3.11 -2.69,-5.8 -1.74,-3.75 -3.44,-7.98 -5.12,-12.68 -1.68,-4.76 -3.53,-9.38 -5.55,-13.86 -1.96,-4.48 -4.23,-8.26 -6.8,-11.34 -2.58,-3.14 -5.6,-4.96 -9.07,-5.46 l 7.56,-5.88 11.76,1.01 c 3.3,1.4 6.24,3.92 8.82,7.56 2.63,3.64 5.04,7.86 7.22,12.68 2.24,4.76 4.37,9.6 6.38,14.53 2.08,4.93 4.23,9.41 6.47,13.44 0.84,1.57 1.68,3.14 2.52,4.71 0.84,1.51 1.68,3.02 2.52,4.53 z m 129.13,0 v -124.82 h 8.57 c 5.15,0 10.25,-0.23 15.29,-0.67 5.04,-0.45 10.36,-0.68 15.96,-0.68 9.07,0 16.88,1.43 23.44,4.29 6.55,2.8 11.59,7.22 15.12,13.27 3.52,5.99 5.29,13.8 5.29,23.44 0,13.6 -4.12,24.22 -12.35,31.83 -8.18,7.56 -20.08,11.34 -35.7,11.34 -3.92,0 -7.17,-0.03 -9.74,-0.08 -2.52,-0.06 -4.54,-0.09 -6.05,-0.09 v 42.17 z m 19.83,-57.29 c 2.52,0.34 5.01,0.56 7.47,0.68 2.52,0.11 4.9,0.16 7.14,0.16 5.21,0 10.08,-0.72 14.62,-2.18 4.54,-1.51 8.18,-4.31 10.92,-8.4 2.8,-4.14 4.2,-10.19 4.2,-18.14 0,-9.58 -2.58,-16.52 -7.73,-20.84 -5.09,-4.36 -12.49,-6.38 -22.17,-6.04 -2.41,0.05 -4.88,0.19 -7.4,0.42 -2.52,0.22 -4.87,0.58 -7.05,1.09 z m 133.07,57.29 h -19.83 v -124.82 c 1.01,0 1.99,0 2.94,0 0.95,0 1.91,0 2.86,0 0.95,0 1.93,0 2.94,0 3.97,0 8.68,-0.23 14.11,-0.67 5.43,-0.45 11.42,-0.68 17.98,-0.68 6.27,0 12.01,0.68 17.22,2.02 5.2,1.29 9.71,3.36 13.52,6.22 3.86,2.8 6.83,6.46 8.9,11 2.13,4.48 3.2,9.94 3.2,16.38 0,7.5 -1.26,13.83 -3.78,18.98 -2.52,5.16 -6.14,9.22 -10.84,12.18 -4.65,2.97 -10.19,4.96 -16.63,5.97 -2.3,0.33 -4.68,0.61 -7.14,0.84 -2.41,0.17 -5.57,0.31 -9.49,0.42 -3.92,0.05 -9.24,0.08 -15.96,0.08 z m 0,-66.19 c 1.17,0.17 2.96,0.31 5.37,0.42 2.47,0.06 4.96,0.08 7.48,0.08 2.52,0 4.51,0 5.96,0 8.07,0 14.28,-1.96 18.65,-5.88 4.37,-3.97 6.55,-10.02 6.55,-18.14 0,-4.82 -0.81,-8.85 -2.43,-12.1 -1.63,-3.3 -4.34,-5.76 -8.15,-7.39 -3.75,-1.68 -8.85,-2.52 -15.29,-2.52 -3.25,0 -6.47,0.14 -9.66,0.42 -3.14,0.23 -5.96,0.59 -8.48,1.09 z m 50.4,66.19 c -0.73,-1.12 -1.35,-2.27 -1.85,-3.44 -0.51,-1.18 -1.4,-3.11 -2.69,-5.8 -1.74,-3.75 -3.44,-7.98 -5.12,-12.68 -1.68,-4.76 -3.53,-9.38 -5.55,-13.86 -1.96,-4.48 -4.23,-8.26 -6.8,-11.34 -2.58,-3.14 -5.6,-4.96 -9.07,-5.46 l 7.56,-5.88 11.76,1.01 c 3.3,1.4 6.24,3.92 8.82,7.56 2.63,3.64 5.04,7.86 7.22,12.68 2.24,4.76 4.37,9.6 6.38,14.53 2.08,4.93 4.23,9.41 6.47,13.44 0.84,1.57 1.68,3.14 2.52,4.71 0.84,1.51 1.68,3.02 2.52,4.53 z m 116.81,1.35 c -11.59,0.22 -21.61,-2.41 -30.07,-7.9 -8.45,-5.54 -14.92,-13.22 -19.4,-23.02 -4.48,-9.85 -6.58,-21.11 -6.3,-33.76 0.28,-13.95 3.02,-25.57 8.23,-34.86 5.26,-9.3 12.24,-16.27 20.92,-20.92 8.73,-4.65 18.45,-7 29.14,-7.06 11.09,-0.05 20.75,2.55 28.98,7.82 8.24,5.2 14.56,12.6 18.99,22.17 4.48,9.58 6.58,20.81 6.3,33.69 -0.28,13.94 -2.91,25.62 -7.9,35.02 -4.98,9.36 -11.7,16.44 -20.16,21.26 -8.45,4.81 -18.03,7.33 -28.73,7.56 z m 0.51,-15.12 c 11.09,0 19.91,-4.18 26.46,-12.52 6.55,-8.4 9.83,-20.75 9.83,-37.04 0,-8.63 -1.32,-16.55 -3.95,-23.78 -2.58,-7.28 -6.47,-13.1 -11.68,-17.47 -5.15,-4.42 -11.59,-6.63 -19.32,-6.63 -6.77,0 -13.02,1.73 -18.73,5.2 -5.71,3.48 -10.3,8.82 -13.78,16.05 -3.41,7.22 -5.12,16.49 -5.12,27.8 0,8.57 1.34,16.55 4.03,23.94 2.75,7.34 6.81,13.25 12.18,17.73 5.38,4.48 12.07,6.72 20.08,6.72 z m 107.46,13.77 v -124.82 h 72.41 v 15.12 h -52.58 v 39.48 h 39.31 v 15.12 h -39.31 v 55.1 z m 117.32,0 v -124.82 h 72.58 v 15.12 h -52.76 v 37.97 h 39.15 v 14.95 h -39.15 v 41.33 h 58.64 v 15.45 z m 159.32,1.35 c -5.43,0 -10.59,-0.42 -15.46,-1.26 -4.81,-0.79 -8.96,-1.74 -12.43,-2.86 -3.47,-1.12 -5.96,-2.16 -7.48,-3.11 l 4.12,-16.04 c 2.13,1.23 4.79,2.43 7.98,3.61 3.19,1.18 6.69,2.16 10.5,2.94 3.81,0.73 7.67,1.09 11.59,1.09 7.67,0 13.53,-1.29 17.56,-3.86 4.03,-2.58 6.05,-6.78 6.05,-12.6 0,-3.92 -1.01,-7.2 -3.03,-9.83 -2.01,-2.69 -5.04,-5.21 -9.07,-7.56 -3.98,-2.35 -8.96,-4.96 -14.95,-7.81 -5.1,-2.52 -10.05,-5.55 -14.87,-9.07 -4.76,-3.53 -8.68,-7.68 -11.76,-12.44 -3.08,-4.76 -4.62,-10.22 -4.62,-16.38 0,-6.04 1.18,-11.11 3.53,-15.2 2.41,-4.14 5.63,-7.48 9.66,-10 4.03,-2.52 8.51,-4.34 13.44,-5.46 4.98,-1.12 10.08,-1.68 15.29,-1.68 7.61,0 13.91,0.76 18.9,2.27 4.98,1.46 8.56,2.91 10.75,4.37 l -3.87,15.54 c -2.85,-1.79 -6.21,-3.39 -10.08,-4.79 -3.8,-1.45 -9.04,-2.18 -15.7,-2.18 -4.09,0 -7.87,0.53 -11.34,1.59 -3.48,1.07 -6.28,2.69 -8.4,4.88 -2.13,2.18 -3.2,4.98 -3.2,8.4 0,3.86 0.79,7.11 2.36,9.74 1.62,2.58 4.22,5.01 7.81,7.31 3.58,2.24 8.29,4.87 14.11,7.89 4.2,2.19 8.34,4.51 12.43,6.98 4.09,2.4 7.79,5.09 11.09,8.06 3.36,2.97 6.02,6.38 7.98,10.25 2.02,3.81 3.02,8.17 3.02,13.1 0,7.62 -1.79,13.97 -5.37,19.07 -3.53,5.04 -8.46,8.82 -14.79,11.34 -6.27,2.46 -13.52,3.7 -21.75,3.7 z m 123.55,0 c -5.43,0 -10.58,-0.42 -15.46,-1.26 -4.81,-0.79 -8.96,-1.74 -12.43,-2.86 -3.47,-1.12 -5.96,-2.16 -7.47,-3.11 l 4.11,-16.04 c 2.13,1.23 4.79,2.43 7.98,3.61 3.19,1.18 6.69,2.16 10.5,2.94 3.81,0.73 7.67,1.09 11.59,1.09 7.68,0 13.53,-1.29 17.56,-3.86 4.03,-2.58 6.05,-6.78 6.05,-12.6 0,-3.92 -1.01,-7.2 -3.03,-9.83 -2.01,-2.69 -5.04,-5.21 -9.07,-7.56 -3.97,-2.35 -8.96,-4.96 -14.95,-7.81 -5.1,-2.52 -10.05,-5.55 -14.87,-9.07 -4.76,-3.53 -8.68,-7.68 -11.76,-12.44 -3.08,-4.76 -4.62,-10.22 -4.62,-16.38 0,-6.04 1.18,-11.11 3.53,-15.2 2.41,-4.14 5.63,-7.48 9.66,-10 4.03,-2.52 8.51,-4.34 13.44,-5.46 4.98,-1.12 10.08,-1.68 15.29,-1.68 7.61,0 13.91,0.76 18.9,2.27 4.98,1.46 8.57,2.91 10.75,4.37 l -3.86,15.54 c -2.86,-1.79 -6.22,-3.39 -10.08,-4.79 -3.81,-1.45 -9.05,-2.18 -15.71,-2.18 -4.09,0 -7.87,0.53 -11.34,1.59 -3.47,1.07 -6.27,2.69 -8.4,4.88 -2.13,2.18 -3.19,4.98 -3.19,8.4 0,3.86 0.78,7.11 2.35,9.74 1.62,2.58 4.23,5.01 7.81,7.31 3.58,2.24 8.29,4.87 14.11,7.89 4.2,2.19 8.35,4.51 12.43,6.98 4.09,2.4 7.79,5.09 11.09,8.06 3.36,2.97 6.02,6.38 7.98,10.25 2.02,3.81 3.03,8.17 3.03,13.1 0,7.62 -1.8,13.97 -5.38,19.07 -3.53,5.04 -8.46,8.82 -14.78,11.34 -6.28,2.46 -13.53,3.7 -21.76,3.7 z m 94.15,-1.35 v -124.82 h 19.83 v 124.82 z m 129.16,1.35 c -11.59,0.22 -21.61,-2.41 -30.07,-7.9 -8.45,-5.54 -14.92,-13.22 -19.4,-23.02 -4.48,-9.85 -6.58,-21.11 -6.3,-33.76 0.28,-13.95 3.02,-25.57 8.23,-34.86 5.26,-9.3 12.24,-16.27 20.92,-20.92 8.73,-4.65 18.45,-7 29.14,-7.06 11.09,-0.05 20.75,2.55 28.98,7.82 8.24,5.2 14.56,12.6 18.99,22.17 4.48,9.58 6.58,20.81 6.3,33.69 -0.28,13.94 -2.91,25.62 -7.9,35.02 -4.98,9.36 -11.7,16.44 -20.16,21.26 -8.45,4.81 -18.03,7.33 -28.73,7.56 z m 0.51,-15.12 c 11.09,0 19.91,-4.18 26.46,-12.52 6.55,-8.4 9.83,-20.75 9.83,-37.04 0,-8.63 -1.32,-16.55 -3.95,-23.78 -2.58,-7.28 -6.47,-13.1 -11.68,-17.47 -5.15,-4.42 -11.59,-6.63 -19.32,-6.63 -6.77,0 -13.02,1.73 -18.73,5.2 -5.71,3.48 -10.3,8.82 -13.78,16.05 -3.41,7.22 -5.12,16.49 -5.12,27.8 0,8.57 1.34,16.55 4.03,23.94 2.75,7.34 6.81,13.25 12.18,17.73 5.38,4.48 12.07,6.72 20.08,6.72 z m 107.46,13.77 v -124.82 h 17.98 l 52.25,80.81 16.63,31.08 h -5.88 l -2.19,-34.95 v -76.94 h 18.32 v 124.82 h -18.82 l -50.23,-77.78 -19.32,-35.11 h 7.22 l 2.02,37.8 v 75.09 z m 162.44,0 h -20.83 l 47.38,-126.17 h 19.23 l 46.71,126.17 h -21.42 l -31.17,-93.83 -3.53,-12.01 -3.69,12.01 z m 2.69,-30.66 3.36,-14.53 h 57.29 l 3.53,14.53 z m 134.31,30.66 v -124.82 h 19.66 v 109.2 h 49.05 v 15.62 z m 174.39,0 v -124.82 h 19.83 v 124.82 z m 108.67,0 v -109.7 h -38.47 v -15.12 h 96.68 v 15.12 h -38.39 v 109.7 z"
         fill="#ea1513"
         id="path751" />
    </g>
  </g>
  <use
     x="0"
     y="0"
     xlink:href="#g977"
     id="use983"
     transform="translate(-2301.28,-603.91895)" />
</svg>
