<svg id="Calque_1" data-name="Calque 1" xmlns="http://www.w3.org/2000/svg" viewBox="0 0 512 512"><defs><style>.cls-1{fill:#e41513;}</style></defs><title>logo_kaisen-linux-picto-block-red</title><path class="cls-1" d="M393.68,243.74c14.61,20.79-.06,53.76-3,58.35,1.16-6.7-2.34-22.16-21-26.21s-30.79,29.94-14.8,54.22H225.94c25.13-13.86,62.87-21.49,65.72-48.05,1.7-15.87-20.12-29.18-37.4-18.13,6.16-17.85,12.38-34.36,80.75-18.41-61.83-44.58-69.5-64.55,11.62-89.75-27.82-9.84-74.6-17.9-90.4-2.8.51-8.83,4.26-27.3,17.51-39.18-13-2.84-32.47-6.27-48.13,6.4-.74-46.78,50.73-44.88,85.73-51.05-35.27,23.32-28.34,45.39,1.13,48.44,51.7,5.34,92.73,9.55,97.79,65.91-43.84-30.79-72.52-5.35-59.83,18.15C360.3,219.91,379.07,222.94,393.68,243.74Z"/><path class="cls-1" d="M299.26,161.2c-23.68-3.29-31.47,4.23-42.69,9.75-17.16,8.44-24.85-23-7.51-45.19-23.88,4.81-32.39,21-36.77,29.73-4.47-22.48-8.9-34,11.61-71.6-26.26,18.82-34,35.07-44,68.54-7-9.35-11-30.4.38-50-41,28.16-12,61.6-39.36,111.86-7.44,13.68-30.08,21.66-36.7.11-8.2,30.52,4.63,59,29.22,69.8-.37-9.46,1.1-18.32,8-26.3,1.13,6.37,2.17,12.11,7.35,16.5-.24-7.91,4.28-16.37,9-22.71.67,6.16,2.39,11.26,7.31,13.07,15.08-44.56,39.94-39.58,41.78-36.7s2,21.85-7.5,31.55c-13.7,14-33.85,16.93-40.29,18.84,1.32,6,6.42,8,12,10.09-7.86,6.47-16.5,5.84-25.47,5.11,7.38,16.69,37.63,31.14,52.79,25.74-2.5-4.75-5.48-9.35-7.45-14.35-4.3-10.89.39-18.63,11.2-20.69,9-1.71,21.58,3,27,4.36-9.5-23.06,14.79-71.09,63.73-62.09C246.23,188.87,285.45,167.4,299.26,161.2ZM176.89,198.34c0-10.25,5-26,7.22-28.59s8.68-1.64,19.28,3.57C189.48,181,184.64,187.13,176.89,198.34Z"/><polygon class="cls-1" points="127.02 382.36 116.96 382.36 109.86 390.52 109.86 371 101.74 371 101.74 410.3 109.86 410.3 109.86 401.02 111.56 399.23 118.75 410.3 128.41 410.3 117.27 393.3 127.02 382.36"/><path class="cls-1" d="M169.82,381.13a5.4,5.4,0,1,0,3.8,1.57A5.4,5.4,0,0,0,169.82,381.13Z"/><path class="cls-1" d="M169.82,400.7a5.37,5.37,0,0,0-5.38,5.37v.06a5.38,5.38,0,0,0,5.35,5.41h0a5.23,5.23,0,0,0,3.82-1.59,5.4,5.4,0,0,0-3.82-9.21Z"/><path class="cls-1" d="M198.08,393.19a20.67,20.67,0,0,1-4.19-2c-.63-.48-.63-.84-.63-1,0-.55,0-1.46,2.12-1.46a7.14,7.14,0,0,1,4.82,1.44l1.14,1,2.58-7-.83-.42a17.41,17.41,0,0,0-8-1.92,11.78,11.78,0,0,0-7.16,2.07,7.1,7.1,0,0,0-3,6.07c0,3.77,2.46,6.71,7.32,8.73a14.06,14.06,0,0,1,3.84,2,2,2,0,0,1,.71,1.63c0,.51,0,1.47-2.48,1.47a8.6,8.6,0,0,1-5.46-1.92l-1.12-.75-3,6.92.86.46a22.11,22.11,0,0,0,4.14,1.81,17.68,17.68,0,0,0,4.41.46A12.74,12.74,0,0,0,202,408.5a7.81,7.81,0,0,0,3.07-6.49,8.22,8.22,0,0,0-1.72-5.25A12.33,12.33,0,0,0,198.08,393.19Z"/><path class="cls-1" d="M225,381.88a13.37,13.37,0,0,0-9.8,4.09,14.47,14.47,0,0,0-4.08,10.64c0,4.4,1.26,7.9,3.74,10.4s5.88,3.77,10.09,3.77c9.57,0,12.66-5.49,12.66-5.49l-5.21-4.5-1,1a7.58,7.58,0,0,1-5.53,1.84,6.67,6.67,0,0,1-4.58-1.46,5,5,0,0,1-1.64-3h17.8C239.74,384.13,229,381.88,225,381.88Zm-5,10.71a4.87,4.87,0,0,1,5.05-3.58c2.8,0,4.43,1.14,5,3.58Z"/><path class="cls-1" d="M317.08,374.67a2.79,2.79,0,0,0-2.82,2.78v0a2.84,2.84,0,0,0,5.68,0v0a2.78,2.78,0,0,0-2.86-2.8Z"/><path class="cls-1" d="M373.26,402.59a6.22,6.22,0,0,1-2.48,3,7.28,7.28,0,0,1-4.16,1.31q-5.19,0-5.19-6V384.44h-4.58v17q0,4.49,2.26,6.93a8.49,8.49,0,0,0,6.5,2.44,9.7,9.7,0,0,0,4.55-1.27,7.1,7.1,0,0,0,3.1-2.79v3.57h4.59V384.44h-4.59Z"/><polygon class="cls-1" points="399.98 397.06 409.36 384.44 404.3 384.44 397.8 393.32 392.01 384.44 386.85 384.44 395.46 397.06 386.07 410.29 391.43 410.29 397.73 400.88 404.78 410.29 410.26 410.29 399.98 397.06"/><rect class="cls-1" x="314.56" y="384.44" width="4.59" height="25.85"/><path class="cls-1" d="M268,385c-5-4.87-10.85-2.53-13.67-.78v-1.82h-8.12v27.93h8.12V392a5.52,5.52,0,0,1,1.77-1.3,5.19,5.19,0,0,1,2.37-.64,4.13,4.13,0,0,1,3.34,1.14,6.55,6.55,0,0,1,1,4.16v14.94h8.12V394.44C270.92,390.87,270,386.94,268,385Z"/><rect class="cls-1" x="299.45" y="373.85" width="4.59" height="36.45"/><path class="cls-1" d="M332.85,386.42v-2h-4.58v25.85h4.58V393.48c0-1.93,1-5.34,5.91-5.34s5.41,4.37,5.41,7.12v15h4.57v-16C348.74,381.05,333.12,383.47,332.85,386.42Z"/><path class="cls-1" d="M132.87,431.54v3.09h4.63v2h-4.63v6h-2.34V429.46h8.68v2.08Z"/><path class="cls-1" d="M144,435.94a7.43,7.43,0,0,1,1.54-4.76,5,5,0,0,1,4.13-1.95A5.36,5.36,0,0,1,154,431a7.34,7.34,0,0,1,1.51,4.95,7.65,7.65,0,0,1-1.57,5.06,5.55,5.55,0,0,1-4.46,1.87,4.85,4.85,0,0,1-4.07-1.85A8.2,8.2,0,0,1,144,435.94Zm2.43,0a6.85,6.85,0,0,0,.78,3.58,2.53,2.53,0,0,0,2.28,1.27,3.14,3.14,0,0,0,2.68-1.24,6.05,6.05,0,0,0,.92-3.61q0-4.63-3.42-4.63a2.68,2.68,0,0,0-2.4,1.25A6,6,0,0,0,146.4,435.94Z"/><path class="cls-1" d="M168.31,442.64l-3.52-5.44c-.36,0-.85,0-1.49-.06v5.5h-2.43V429.46l1.52-.06c.89,0,1.6-.07,2.14-.07,3.34,0,5,1.29,5,3.89a3.63,3.63,0,0,1-.69,2.13,4,4,0,0,1-1.75,1.36l3.9,5.93Zm-5-11.14v3.63c.44,0,.77.05,1,.05a4.54,4.54,0,0,0,2.15-.41,1.74,1.74,0,0,0,.68-1.61,1.4,1.4,0,0,0-.73-1.36,5,5,0,0,0-2.29-.39,4.57,4.57,0,0,0-.82.09Z"/><path class="cls-1" d="M186.66,437.79v4.85h-2.34V429.47l2.73-.1a8.36,8.36,0,0,1,4.57,1,3.33,3.33,0,0,1,1.44,3q0,4.54-5.34,4.54C187.37,437.88,187,437.84,186.66,437.79Zm0-6.29v4.22q.59.06.93.06a4.07,4.07,0,0,0,2.34-.54,2,2,0,0,0,.74-1.74c0-1.37-1.1-2.05-3.3-2.05A4.24,4.24,0,0,0,186.66,431.5Z"/><path class="cls-1" d="M205.88,442.64l-3.52-5.44a14.75,14.75,0,0,1-1.48-.06v5.5h-2.43V429.46l1.52-.06c.88,0,1.59-.07,2.13-.07,3.35,0,5,1.29,5,3.89a3.63,3.63,0,0,1-.69,2.13,3.8,3.8,0,0,1-1.75,1.36l3.9,5.93Zm-5-11.14v3.63c.43,0,.76.05,1,.05a4.5,4.5,0,0,0,2.14-.41,1.74,1.74,0,0,0,.68-1.61,1.4,1.4,0,0,0-.72-1.36,5,5,0,0,0-2.3-.39A5.29,5.29,0,0,0,200.88,431.5Z"/><path class="cls-1" d="M212.39,435.94a7.42,7.42,0,0,1,1.55-4.76,5,5,0,0,1,4.12-1.95,5.4,5.4,0,0,1,4.35,1.76,7.39,7.39,0,0,1,1.5,4.95,7.63,7.63,0,0,1-1.57,5.06,5.49,5.49,0,0,1-4.46,1.87,4.85,4.85,0,0,1-4.07-1.85A8.22,8.22,0,0,1,212.39,435.94Zm2.43,0a6.77,6.77,0,0,0,.79,3.58,2.52,2.52,0,0,0,2.27,1.27,3.14,3.14,0,0,0,2.68-1.24,6.05,6.05,0,0,0,.92-3.61q0-4.63-3.42-4.63a2.71,2.71,0,0,0-2.4,1.25A6,6,0,0,0,214.82,435.94Z"/><path class="cls-1" d="M231.64,431.54v3.09h4.63v2h-4.63v6H229.3V429.46H238v2.08Z"/><path class="cls-1" d="M245.74,431.54v3.09h4.35v2h-4.35v3.95h6v2.07h-8.31V429.46h8.31v2.08Z"/><path class="cls-1" d="M256.54,441.92l.86-2.1a4.75,4.75,0,0,0,2.73,1c1.37,0,2.06-.48,2.06-1.44a2,2,0,0,0-.49-1.29,6.1,6.1,0,0,0-2-1.37,9.2,9.2,0,0,1-2-1.25,3.58,3.58,0,0,1-.81-1.16,3.89,3.89,0,0,1-.29-1.5,3.25,3.25,0,0,1,1.12-2.53,4.11,4.11,0,0,1,2.88-1,5.29,5.29,0,0,1,3.35.85l-.71,2a4.29,4.29,0,0,0-2.6-.88,1.75,1.75,0,0,0-1.25.42,1.49,1.49,0,0,0-.45,1.11c0,.76.84,1.55,2.51,2.36a7.32,7.32,0,0,1,1.91,1.2,3.49,3.49,0,0,1,.89,1.26,4.06,4.06,0,0,1,.31,1.62,3.25,3.25,0,0,1-1.27,2.64,5.23,5.23,0,0,1-3.38,1A6.18,6.18,0,0,1,256.54,441.92Z"/><path class="cls-1" d="M269.28,441.92l.86-2.1a4.75,4.75,0,0,0,2.73,1c1.37,0,2.05-.48,2.05-1.44a2.07,2.07,0,0,0-.48-1.29,6.1,6.1,0,0,0-2-1.37,10.32,10.32,0,0,1-2-1.25,3.31,3.31,0,0,1-.8-1.16,3.89,3.89,0,0,1-.29-1.5,3.25,3.25,0,0,1,1.12-2.53,4.11,4.11,0,0,1,2.88-1,5.29,5.29,0,0,1,3.35.85l-.71,2a4.29,4.29,0,0,0-2.6-.88,1.69,1.69,0,0,0-1.25.42,1.49,1.49,0,0,0-.45,1.11c0,.76.84,1.55,2.51,2.36a7.77,7.77,0,0,1,1.91,1.2,3.49,3.49,0,0,1,.89,1.26,4.25,4.25,0,0,1,.31,1.62,3.26,3.26,0,0,1-1.27,2.64,5.22,5.22,0,0,1-3.39,1A6.09,6.09,0,0,1,269.28,441.92Z"/><path class="cls-1" d="M282.74,442.64V429.46h2.34v13.18Z"/><path class="cls-1" d="M290.46,435.94a7.43,7.43,0,0,1,1.54-4.76,5,5,0,0,1,4.13-1.95,5.36,5.36,0,0,1,4.34,1.76,7.34,7.34,0,0,1,1.51,4.95,7.65,7.65,0,0,1-1.57,5.06,5.55,5.55,0,0,1-4.46,1.87,4.85,4.85,0,0,1-4.07-1.85A8.2,8.2,0,0,1,290.46,435.94Zm2.43,0a6.85,6.85,0,0,0,.78,3.58,2.53,2.53,0,0,0,2.28,1.27,3.12,3.12,0,0,0,2.67-1.24,6,6,0,0,0,.93-3.61q0-4.63-3.42-4.63a2.7,2.7,0,0,0-2.41,1.25A6.05,6.05,0,0,0,292.89,435.94Z"/><path class="cls-1" d="M316,442.82l-6.4-8.34v8.17h-2.25V429.46h1.13l6.23,8v-8H317v13.36Z"/><path class="cls-1" d="M330.67,442.64l-1-2.67h-4.52l-.91,2.67h-2.6l5.25-13.36h1l5.3,13.36Zm-3.23-9.33-1.58,4.87H329Z"/><path class="cls-1" d="M338,442.64V429.46h2.34v11.11h6v2.07Z"/><path class="cls-1" d="M359.74,442.64V429.46h2.34v13.18Z"/><path class="cls-1" d="M373.46,431.54v11.1h-2.33v-11.1h-4.2v-2.08h10.92v2.08Z"/><path class="cls-1" d="M151.05,384.87c-2-2-5.18-3-9.39-3a17.89,17.89,0,0,0-7.86,1.6l-.79.38,1.88,6.73L136,390a11.76,11.76,0,0,1,5.23-1c3.09,0,4.19,1,4.56,2.21a8,8,0,0,0-1.3-.1c-4.35,0-7.78.92-10.2,2.75a9.29,9.29,0,0,0-3.78,7.85,8.45,8.45,0,0,0,2.75,6.71,10.71,10.71,0,0,0,7.25,2.35,12,12,0,0,0,4.66-.94,8.43,8.43,0,0,0,2.23-1.34v2.28h8.13v-15A15,15,0,0,0,151.05,384.87Zm-3.63,16.94c-5.24,4.07-8.46,1.34-8.44-1.14,0-2.69,3.35-4.38,8.44-2.06Z"/></svg>