<?xml version="1.0" encoding="UTF-8" standalone="no"?>
<svg
   id="Calque_1"
   data-name="Calque 1"
   viewBox="0 0 512 512"
   version="1.1"
   xmlns="http://www.w3.org/2000/svg"
   xmlns:svg="http://www.w3.org/2000/svg"
   xmlns:rdf="http://www.w3.org/1999/02/22-rdf-syntax-ns#"
   xmlns:cc="http://creativecommons.org/ns#"
   xmlns:dc="http://purl.org/dc/elements/1.1/">
  <defs
     id="defs4">
    <style
       id="style2">.cls-1{fill:#333;}</style>
  </defs>
  <title
     id="title6">logo_kaisen-linux-picto-block-black</title>
  <polygon
     class="cls-1"
     points="404.29,384.16 397.79,393.05 392,384.16 386.84,384.16 395.45,396.79 386.06,410.01 391.42,410.01 397.72,400.6 404.77,410.01 410.25,410.01 399.97,396.79 409.35,384.16 "
     id="polygon8"
     style="stroke-width:0.751596;fill:#e41513;fill-opacity:1"
     transform="matrix(1.3304113,0,0,1.3305995,-86.522716,-86.588678)" />
  <path
     class="cls-1"
     d="m 437.2336,237.73164 c 19.43731,27.66317 -0.0798,71.53303 -3.99123,77.64048 1.54328,-8.91501 -3.11316,-29.48608 -27.93864,-34.87501 -24.82547,-5.38893 -40.96336,39.83815 -19.69008,72.14511 H 214.07041 c 33.43324,-18.44211 83.64296,-28.59459 87.43463,-63.93531 2.2617,-21.11661 -26.76787,-38.82689 -49.75738,-24.12377 8.19533,-23.7512 16.47049,-45.7194 107.43071,-24.49633 -82.25933,-59.31813 -92.46358,-85.8902 15.45938,-119.42131 -37.01204,-13.0931 -99.24868,-23.817731 -120.26918,-3.72568 0.67851,-11.74919 5.66755,-36.325365 23.2955,-52.132887 -17.29534,-3.778902 -43.19845,-8.342859 -64.03269,8.515837 -0.98451,-62.245445 67.49176,-59.717306 114.05616,-67.9271046 -46.92361,31.0295806 -37.70386,60.3959116 1.50336,64.4542396 68.78227,7.105402 123.36904,12.707225 130.10092,87.699815 -58.32523,-40.96916 -96.48142,-7.11871 -79.5985,24.15038 13.13116,24.32336 38.10298,28.35507 57.54028,56.03154 z"
     id="path10"
     style="stroke-width:1;fill:#e41513;fill-opacity:1" />
  <path
     class="cls-1"
     d="m 311.61617,127.90396 c -31.50414,-4.37767 -41.86804,5.62844 -56.79526,12.97335 -22.82986,11.23026 -33.06072,-30.60379 -9.99139,-60.129795 C 213.0593,87.147699 201.7375,108.6901 195.9103,120.30624 189.96336,90.394361 184.06964,75.065855 211.35637,25.035314 176.41977,50.077197 166.12239,71.699439 152.81828,116.2346 143.5054,103.7935 138.18375,75.784379 153.32383,49.704629 98.77697,87.174311 137.3589,131.66956 100.95884,198.54549 c -9.898256,18.2026 -40.018768,28.82078 -48.82609,0.14636 -10.909373,40.6099 6.159804,78.50538 38.874618,92.87585 -0.492252,-12.58747 1.463452,-24.37658 10.643292,-34.99477 1.50336,8.47592 2.88699,16.11356 9.77852,21.95489 -0.3193,-10.52504 5.69416,-21.78191 11.9737,-30.21791 0.89138,8.19649 3.17969,14.98255 9.72531,17.39094 20.0626,-59.29152 53.13663,-52.66513 55.58458,-48.83301 2.44796,3.83213 2.66083,29.0736 -9.97808,41.98042 -18.22664,18.62839 -45.03442,22.52705 -53.60227,25.06849 1.75614,7.9836 8.54124,10.6448 15.96493,13.42575 -10.45703,8.60898 -21.95178,7.7707 -33.88557,6.79937 9.81843,22.2077 50.06337,41.43486 70.23241,34.24963 -3.32603,-6.32035 -7.29065,-12.44111 -9.91156,-19.09411 -5.72077,-14.49023 0.51886,-24.78907 14.9006,-27.5301 11.9737,-2.27533 28.71028,3.9918 35.92111,5.80141 -12.63891,-30.68362 19.67678,-94.59231 84.78711,-82.61692 -62.07699,-50.23013 -9.89826,-78.7981 8.47472,-87.04782 z m -162.80243,49.41847 c 0,-13.63865 6.65206,-34.59559 9.60557,-38.04184 2.95351,-3.44626 11.54797,-2.18219 25.65033,4.75024 -18.50602,10.219 -24.94521,18.37558 -35.2559,33.2916 z"
     id="path12"
     style="stroke-width:1;fill:#e41513;fill-opacity:1" />
  <polygon
     class="cls-1"
     points="109.86,390.52 109.86,371 101.74,371 101.74,410.3 109.86,410.3 109.86,401.02 111.56,399.23 118.75,410.3 128.41,410.3 117.27,393.3 127.02,382.36 116.96,382.36 "
     id="polygon14"
     style="stroke-width:0.751596;fill:#e41513;fill-opacity:1"
     transform="matrix(1.3304113,0,0,1.3305995,-86.522716,-86.588678)" />
  <path
     class="cls-1"
     d="m 139.40773,420.54271 a 7.184221,7.1852373 0 1 0 5.05556,2.08904 7.184221,7.1852373 0 0 0 -5.05556,-2.08904 z"
     id="path16"
     style="stroke-width:1;fill:#e41513;fill-opacity:1" />
  <path
     class="cls-1"
     d="m 139.40773,446.58254 a 7.1443087,7.1453193 0 0 0 -7.15761,7.14532 v 0.0798 a 7.1576128,7.1586253 0 0 0 7.1177,7.19854 v 0 a 6.9580511,6.9590354 0 0 0 5.08217,-2.11565 7.184221,7.1852373 0 0 0 -5.08217,-12.25482 z"
     id="path18"
     style="stroke-width:1;fill:#e41513;fill-opacity:1" />
  <path
     class="cls-1"
     d="m 177.00515,436.58974 a 27.499602,27.503492 0 0 1 -5.57442,-2.6612 c -0.83816,-0.63869 -0.83816,-1.1177 -0.83816,-1.3306 0,-0.73183 0,-1.94267 2.82047,-1.94267 a 9.4991367,9.5004804 0 0 1 6.41259,1.91606 l 1.51667,1.3306 3.43246,-9.3142 -1.10425,-0.55885 a 23.162461,23.165737 0 0 0 -10.64329,-2.55475 15.672245,15.674462 0 0 0 -9.52574,2.75434 9.4459202,9.4472564 0 0 0 -3.99123,8.07674 c 0,5.01636 3.27281,8.92832 9.73861,11.61613 a 18.705583,18.708229 0 0 1 5.10878,2.6612 2.6608226,2.661199 0 0 1 0.94459,2.16888 c 0,0.6786 0,1.95598 -3.29942,1.95598 a 11.441537,11.443156 0 0 1 -7.26405,-2.55475 l -1.49006,-0.99795 -3.99123,9.20775 1.14415,0.61207 a 29.415394,29.419555 0 0 0 5.5079,2.40839 23.521672,23.524999 0 0 0 5.86712,0.61207 16.94944,16.951838 0 0 0 10.44373,-3.03376 10.390512,10.391982 0 0 0 4.08436,-8.63559 10.935981,10.937528 0 0 0 -2.28831,-6.98565 16.403971,16.406292 0 0 0 -7.01127,-4.75024 z"
     id="path20"
     style="stroke-width:1;fill:#e41513;fill-opacity:1" />
  <path
     class="cls-1"
     d="m 212.81983,421.54066 a 17.787599,17.790115 0 0 0 -13.03803,5.44215 19.251052,19.253775 0 0 0 -5.42808,14.15758 c 0,5.85464 1.67632,10.51174 4.97574,13.83823 3.29942,3.3265 7.82281,5.01636 13.42385,5.01636 12.73203,0 16.843,-7.30499 16.843,-7.30499 l -6.93144,-5.98769 -1.33041,1.3306 a 10.084518,10.085944 0 0 1 -7.35718,2.4483 8.8738434,8.8750987 0 0 1 -6.09328,-1.94268 6.6520565,6.6529975 0 0 1 -2.18187,-3.9918 h 23.68132 c 3.04664,-20.01221 -11.24198,-23.00606 -16.56362,-23.00606 z m -6.65206,14.25072 a 6.479103,6.4800196 0 0 1 6.71858,-4.76355 c 3.72515,0 5.89372,1.51689 6.65205,4.76355 z"
     id="path22"
     style="stroke-width:1;fill:#e41513;fill-opacity:1" />
  <path
     class="cls-1"
     d="m 335.3241,411.94704 a 3.7118475,3.7123726 0 0 0 -3.75176,3.69906 v 0 a 3.77837,3.7789045 0 0 0 7.55674,0 v 0 a 3.6985434,3.6990666 0 0 0 -3.80498,-3.72568 z"
     id="path24"
     style="stroke-width:1;fill:#e41513;fill-opacity:1" />
  <path
     class="cls-1"
     d="m 410.06661,449.09737 a 8.2751583,8.2763289 0 0 1 -3.29942,3.9918 9.6853943,9.6867644 0 0 1 -5.53452,1.74309 q -6.90483,0 -6.90483,-7.9836 v -21.90167 h -6.09328 v 22.6202 q 0,5.97439 3.00673,9.22105 a 11.295192,11.29679 0 0 0 8.64767,3.24666 12.90499,12.906815 0 0 0 6.05337,-1.68986 9.4459202,9.4472564 0 0 0 4.12428,-3.71237 v 4.75024 h 6.10658 v -34.43592 h -6.10658 z"
     id="path26"
     style="stroke-width:1;fill:#e41513;fill-opacity:1" />
  <rect
     class="cls-1"
     x="331.97147"
     y="424.94699"
     width="6.1065879"
     height="34.395996"
     id="rect28"
     style="stroke-width:1;fill:#e41513;fill-opacity:1" />
  <path
     class="cls-1"
     d="m 270.02751,425.69213 c -6.65205,-6.48002 -14.43496,-3.36642 -18.18672,-1.03787 v -2.42169 h -10.80294 v 37.16364 h 10.80294 v -24.38988 a 7.3438704,7.3449092 0 0 1 2.35483,-1.72978 6.9048346,6.9058114 0 0 1 3.15307,-0.85159 5.4945987,5.4953759 0 0 1 4.44358,1.51689 8.714194,8.7154267 0 0 1 1.33041,5.53529 v 19.87916 h 10.80294 v -21.10331 c -0.0133,-4.75024 -1.23729,-9.9795 -3.89811,-12.56086 z"
     id="path30"
     style="stroke-width:1;fill:#e41513;fill-opacity:1" />
  <rect
     class="cls-1"
     x="311.86896"
     y="410.85596"
     width="6.1065879"
     height="48.500351"
     id="rect32"
     style="stroke-width:1;fill:#e41513;fill-opacity:1" />
  <path
     class="cls-1"
     d="m 356.30469,427.58158 v -2.6612 h -6.09329 v 34.396 h 6.09329 v -22.34077 c 0,-2.56805 1.33041,-7.1054 7.86273,-7.1054 6.53232,0 7.19752,5.81472 7.19752,9.47387 v 19.95899 h 6.07998 v -21.28959 c 0,-17.57722 -20.78102,-14.35717 -21.14023,-10.4319 z"
     id="path34"
     style="stroke-width:1;fill:#e41513;fill-opacity:1" />
  <path
     class="cls-1"
     d="m 90.249033,487.61823 v 4.11155 h 6.159805 v 2.6612 h -6.159805 v 7.9836 h -3.113162 v -17.524 h 11.54797 v 2.76765 z"
     id="path36"
     style="stroke-width:1;fill:#e41513;fill-opacity:1" />
  <path
     class="cls-1"
     d="m 105.05651,493.47287 a 9.884956,9.8863543 0 0 1 2.04883,-6.33366 6.6520565,6.6529975 0 0 1 5.4946,-2.59466 7.1310046,7.1320133 0 0 1 5.76068,2.35516 9.7652189,9.7666003 0 0 1 2.00893,6.58646 10.177646,10.179086 0 0 1 -2.08875,6.73284 7.3837827,7.3848272 0 0 1 -5.93363,2.48822 6.4524948,6.4534076 0 0 1 -5.41478,-2.46161 10.909373,10.910916 0 0 1 -1.87588,-6.77275 z m 3.2329,0 a 9.1133174,9.1146066 0 0 0 1.03772,4.76354 3.3659406,3.3664167 0 0 0 3.03334,1.68987 4.1774915,4.1780824 0 0 0 3.5655,-1.64995 8.0489884,8.050127 0 0 0 1.22398,-4.80346 q 0,-6.16068 -4.55001,-6.16068 a 3.5655023,3.5660067 0 0 0 -3.19298,1.66325 7.9824678,7.983597 0 0 0 -1.15746,4.49743 z"
     id="path38"
     style="stroke-width:1;fill:#e41513;fill-opacity:1" />
  <path
     class="cls-1"
     d="m 137.39881,502.38788 -4.68305,-7.23846 c -0.47895,0 -1.13085,0 -1.98231,-0.0798 v 7.31829 h -3.2329 v -17.5373 l 2.02223,-0.0798 c 1.18406,0 2.12865,-0.0931 2.84708,-0.0931 4.44357,0 6.65205,1.71647 6.65205,5.17603 a 4.829393,4.8300762 0 0 1 -0.91798,2.83417 5.3216452,5.322398 0 0 1 -2.32822,1.80962 l 5.1886,7.89045 z m -6.65206,-14.82287 v 4.83007 c 0.58538,0 1.02442,0.0665 1.33041,0.0665 a 6.0400673,6.0409217 0 0 0 2.86039,-0.54554 2.3149157,2.3152431 0 0 0 0.90468,-2.14227 1.8625758,1.8628393 0 0 0 -0.9712,-1.80961 6.6520565,6.6529975 0 0 0 -3.04664,-0.51894 6.0799796,6.0808397 0 0 0 -1.09094,0.11976 z"
     id="path40"
     style="stroke-width:1;fill:#e41513;fill-opacity:1" />
  <path
     class="cls-1"
     d="m 161.81186,495.93448 v 6.4534 h -3.11317 v -17.52399 l 3.63203,-0.13306 a 11.122238,11.123812 0 0 1 6.07998,1.3306 4.4302696,4.4308963 0 0 1 1.91579,3.9918 q 0,6.04092 -7.1044,6.04092 c -0.46564,-0.0399 -0.95789,-0.0931 -1.41023,-0.15967 z m 0,-8.36947 v 5.61513 q 0.78494,0.0798 1.23728,0.0798 a 5.414774,5.41554 0 0 0 3.11316,-0.71852 2.6608226,2.661199 0 0 0 0.98451,-2.31524 c 0,-1.82293 -1.46346,-2.72773 -4.39036,-2.72773 a 5.6409439,5.6417419 0 0 0 -0.94459,0.0665 z"
     id="path42"
     style="stroke-width:1;fill:#e41513;fill-opacity:1" />
  <path
     class="cls-1"
     d="m 187.38236,502.38788 -4.68305,-7.23846 a 19.623567,19.626343 0 0 1 -1.969,-0.0798 v 7.31829 h -3.2329 v -17.5373 l 2.02222,-0.0798 c 1.17076,0 2.11536,-0.0931 2.83378,-0.0931 4.45688,0 6.65205,1.71647 6.65205,5.17603 a 4.829393,4.8300762 0 0 1 -0.91798,2.83417 5.0555629,5.0562781 0 0 1 -2.32822,1.80962 l 5.1886,7.89045 z m -6.65205,-14.82287 v 4.83007 c 0.57207,0 1.01111,0.0665 1.33041,0.0665 a 5.9868508,5.9876977 0 0 0 2.84708,-0.54554 2.3149157,2.3152431 0 0 0 0.90468,-2.14227 1.8625758,1.8628393 0 0 0 -0.9579,-1.80961 6.6520565,6.6529975 0 0 0 -3.05995,-0.51894 7.0378758,7.0388714 0 0 0 -1.06432,0.11976 z"
     id="path44"
     style="stroke-width:1;fill:#e41513;fill-opacity:1" />
  <path
     class="cls-1"
     d="m 196.04334,493.47287 a 9.8716518,9.8730483 0 0 1 2.06214,-6.33366 6.6520565,6.6529975 0 0 1 5.48129,-2.59466 7.184221,7.1852373 0 0 1 5.78729,2.34185 9.8317395,9.8331303 0 0 1 1.99562,6.58647 10.151038,10.152474 0 0 1 -2.08875,6.73283 7.303958,7.3049913 0 0 1 -5.93363,2.48822 6.4524948,6.4534076 0 0 1 -5.41478,-2.46161 10.935981,10.937528 0 0 1 -1.88918,-6.75944 z m 3.2329,0 a 9.0068845,9.0081586 0 0 0 1.05102,4.76354 3.3526365,3.3531107 0 0 0 3.02004,1.68987 4.1774915,4.1780824 0 0 0 3.5655,-1.64995 8.0489884,8.050127 0 0 0 1.22398,-4.80346 q 0,-6.16068 -4.55001,-6.16068 a 3.6054146,3.6059246 0 0 0 -3.19299,1.66325 7.9824678,7.983597 0 0 0 -1.11754,4.49743 z"
     id="path46"
     style="stroke-width:1;fill:#e41513;fill-opacity:1" />
  <path
     class="cls-1"
     d="m 221.65376,487.61823 v 4.11155 h 6.1598 v 2.6612 h -6.1598 v 7.9836 h -3.11316 v -17.524 h 11.57457 v 2.76765 z"
     id="path48"
     style="stroke-width:1;fill:#e41513;fill-opacity:1" />
  <path
     class="cls-1"
     d="m 240.41256,487.61823 v 4.11155 h 5.78729 v 2.6612 h -5.78729 v 5.25587 h 7.98246 v 2.75434 h -11.05571 v -17.55061 h 11.05571 v 2.76765 z"
     id="path50"
     style="stroke-width:1;fill:#e41513;fill-opacity:1" />
  <path
     class="cls-1"
     d="m 254.781,501.42985 1.14415,-2.79426 a 6.3194537,6.3203476 0 0 0 3.63203,1.3306 c 1.82266,0 2.74064,-0.63868 2.74064,-1.91606 a 2.6608226,2.661199 0 0 0 -0.6519,-1.71647 8.1155089,8.116657 0 0 0 -2.66082,-1.82292 12.239784,12.241515 0 0 1 -2.66082,-1.66325 4.7628725,4.7635462 0 0 1 -1.07764,-1.5435 5.1753,5.1760321 0 0 1 -0.38582,-1.9959 4.3238367,4.3244484 0 0 1 1.49006,-3.36642 5.4679904,5.4687639 0 0 1 3.83159,-1.33059 7.0378758,7.0388714 0 0 1 4.45688,1.131 l -0.9446,2.6612 a 5.7074645,5.7082719 0 0 0 -3.45906,-1.17092 2.3282198,2.3285491 0 0 0 -1.66302,0.55885 1.9823128,1.9825933 0 0 0 -0.59868,1.47696 c 0,1.01126 1.11754,2.06243 3.33933,3.14022 a 9.7386107,9.7399883 0 0 1 2.54108,1.59672 4.6431354,4.6437923 0 0 1 1.18407,1.67655 5.4014699,5.402234 0 0 1 0.41243,2.15557 4.3238367,4.3244484 0 0 1 -1.68962,3.51279 6.9580511,6.9590354 0 0 1 -4.4968,1.3306 8.2219418,8.2231049 0 0 1 -4.48348,-1.25077 z"
     id="path52"
     style="stroke-width:1;fill:#e41513;fill-opacity:1" />
  <path
     class="cls-1"
     d="m 271.73044,501.42985 1.14415,-2.79426 a 6.3194537,6.3203476 0 0 0 3.63203,1.3306 c 1.82266,0 2.72734,-0.63868 2.72734,-1.91606 a 2.7539514,2.754341 0 0 0 -0.6386,-1.71647 8.1155089,8.116657 0 0 0 -2.66082,-1.82292 13.729845,13.731787 0 0 1 -2.66082,-1.66325 4.4036614,4.4042843 0 0 1 -1.06433,-1.5435 5.1753,5.1760321 0 0 1 -0.38582,-1.9959 4.3238367,4.3244484 0 0 1 1.49006,-3.36642 5.4679904,5.4687639 0 0 1 3.83158,-1.33059 7.0378758,7.0388714 0 0 1 4.45688,1.131 l -0.94459,2.6612 a 5.7074645,5.7082719 0 0 0 -3.45907,-1.17092 2.2483951,2.2487132 0 0 0 -1.66301,0.55885 1.9823128,1.9825933 0 0 0 -0.59869,1.47696 c 0,1.01126 1.11755,2.06243 3.33933,3.14022 a 10.337296,10.338758 0 0 1 2.54109,1.59672 4.6431354,4.6437923 0 0 1 1.18406,1.67655 5.654248,5.6550479 0 0 1 0.41243,2.15557 4.3371408,4.3377544 0 0 1 -1.68962,3.51279 6.944747,6.9457294 0 0 1 -4.5101,1.3306 8.1022048,8.103351 0 0 1 -4.48348,-1.25077 z"
     id="path54"
     style="stroke-width:1;fill:#e41513;fill-opacity:1" />
  <path
     class="cls-1"
     d="m 289.63777,502.38788 v -17.5373 h 3.11317 v 17.5373 z"
     id="path56"
     style="stroke-width:1;fill:#e41513;fill-opacity:1" />
  <path
     class="cls-1"
     d="m 299.90855,493.47287 a 9.884956,9.8863543 0 0 1 2.04883,-6.33366 6.6520565,6.6529975 0 0 1 5.4946,-2.59466 7.1310046,7.1320133 0 0 1 5.77399,2.34185 9.7652189,9.7666003 0 0 1 2.00892,6.58647 10.177646,10.179086 0 0 1 -2.08875,6.73283 7.3837827,7.3848272 0 0 1 -5.93363,2.48822 6.4524948,6.4534076 0 0 1 -5.41478,-2.46161 10.909373,10.910916 0 0 1 -1.88918,-6.75944 z m 3.2329,0 a 9.1133174,9.1146066 0 0 0 1.03772,4.76354 3.3659406,3.3664167 0 0 0 3.03334,1.68987 4.1508833,4.1514704 0 0 0 3.5522,-1.64995 7.9824678,7.983597 0 0 0 1.23728,-4.80346 q 0,-6.16068 -4.55001,-6.16068 a 3.5921105,3.5926187 0 0 0 -3.20629,1.66325 8.0489884,8.050127 0 0 0 -1.10424,4.49743 z"
     id="path58"
     style="stroke-width:1;fill:#e41513;fill-opacity:1" />
  <path
     class="cls-1"
     d="m 333.88725,502.62739 -8.51463,-11.0972 v 10.871 h -2.99342 v -17.55061 h 1.50336 l 8.28846,10.6448 v -10.6448 h 3.04665 v 17.77681 z"
     id="path60"
     style="stroke-width:1;fill:#e41513;fill-opacity:1" />
  <path
     class="cls-1"
     d="m 353.40439,502.38788 -1.33041,-3.5527 h -6.01346 l -1.21068,3.5527 h -3.45907 l 6.98466,-17.7768 h 1.33042 l 7.05118,17.7768 z m -4.29723,-12.41449 -2.10205,6.48002 h 4.17749 z"
     id="path62"
     style="stroke-width:1;fill:#e41513;fill-opacity:1" />
  <path
     class="cls-1"
     d="m 363.1563,502.38788 v -17.5373 h 3.11317 v 14.78296 h 7.98246 v 2.75434 z"
     id="path64"
     style="stroke-width:1;fill:#e41513;fill-opacity:1" />
  <path
     class="cls-1"
     d="m 392.07945,502.38788 v -17.5373 h 3.11316 v 17.5373 z"
     id="path66"
     style="stroke-width:1;fill:#e41513;fill-opacity:1" />
  <path
     class="cls-1"
     d="m 410.33269,487.61823 v 14.76965 h -3.09986 v -14.76965 h -5.58773 v -2.76765 h 14.52809 v 2.76765 z"
     id="path68"
     style="stroke-width:1;fill:#e41513;fill-opacity:1" />
  <path
     class="cls-1"
     d="m 114.43591,425.51915 c -2.66082,-2.6612 -6.89153,-3.9918 -12.49256,-3.9918 a 23.801058,23.804425 0 0 0 -10.457034,2.12896 l -1.051025,0.50563 2.501173,8.95493 1.476757,-0.77174 a 15.645637,15.64785 0 0 1 6.958049,-1.3306 c 4.11097,0 5.57443,1.3306 6.06668,2.94062 a 10.64329,10.644796 0 0 0 -1.72954,-0.13306 c -5.787286,0 -10.350597,1.22415 -13.570193,3.65915 a 12.359521,12.361269 0 0 0 -5.028954,10.44521 11.241975,11.243566 0 0 0 3.658631,8.92832 14.248705,14.250721 0 0 0 9.645486,3.12691 15.964936,15.967194 0 0 0 6.19971,-1.25076 11.215367,11.216954 0 0 0 2.96682,-1.78301 v 3.03377 h 10.81624 v -19.95899 a 19.956169,19.958992 0 0 0 -5.96024,-14.50354 z m -4.82939,22.54036 c -6.97136,5.41554 -11.255282,1.783 -11.228674,-1.51689 0,-3.57931 4.456874,-5.82802 11.228674,-2.74103 z"
     id="path70"
     style="stroke-width:1;fill:#e41513;fill-opacity:1" />
  <metadata
     id="metadata940">
    <rdf:RDF>
      <cc:Work
         rdf:about="">
        <dc:title>logo_kaisen-linux-picto-block-black</dc:title>
      </cc:Work>
    </rdf:RDF>
  </metadata>
</svg>
